<?xml version="1.0" encoding="UTF-8"?>
<svg xmlns="http://www.w3.org/2000/svg" xmlns:xlink="http://www.w3.org/1999/xlink" viewBox="0 0 1366 784">
  <defs>
    <style>
      .cls-1 {
        clip-path: url(#clippath-2);
      }

      .cls-2 {
        fill: none;
      }

      .cls-2, .cls-3 {
        stroke-width: 0px;
      }

      .cls-3 {
        fill: #be7219;
      }
    </style>
    <clipPath id="clippath-2">
      <rect class="cls-2" x="0" width="1366" height="784"/>
    </clipPath>
  </defs>
  <g id="Hintergrund">
    <g class="cls-1">
      <path class="cls-3" d="M-1,342.37s119.31-26.25,163.73-13.22c44.42,13.03,82.62,0,107.05,0s64.46,8.02,80.48,8.02,27.44-2.43,40.24-3.22c12.8-.79,11.36-11.24,28.09,0,16.73,11.24,30.74,8.23,41.75,11.24,11.01,3.01,20.01,13.03,33.02,12.03,13.01-1,20.01-3.01,35.03-4.01,15.01-1,23.02-2,37.03-1,14.01,1,15.01,8.02,26.02,2s-4-7.02,21.02-8.02c25.02-1,40.69-1.55,51.37-4.79,10.68-3.23,2.33-4.79,22.02,0,19.68,4.79,20.11,2.23,33.41,0,13.3-2.23,20.53,4.23,34.92,0,14.4-4.23,26.41-7.24,45.42-3.23s34.02,1,78.06,10.02c44.03,9.02,56.04,14.03,84.06,2s73.05-13.03,100.07-13.03,16.01,12.03,42.03,12.03,57.04,5.01,82.06-2c25.02-7.02,25.02-16.03,83.06-12.03s-56.82,8.19,76.67,22.13c0,0,15.4.41,20.4,11.69,5,11.28-.02,415.02-.02,415.02H-.02l-.98-441.63Z"/>
    </g>
    <path class="cls-3" d="M365.73,328.11c.2-1.55.34-2.77.52-3.99.14-.93.72-1.8.32-2.8-.04-.09.12-.26.19-.41.67.74,1.44,3.61,1.5,5.58.27.09.58.19,1.02.34-.5.59-.9,1.07-1.45,1.72.89.37,1.68.7,2.69,1.12-.45.65-.82,1.18-1.22,1.76,1,.73,2.08.88,3.25.18-.08,2.02-.26,2.2-2.53,2.62.36.65.92.84,1.59.93.32.05.6.31.9.48-.26.37-.44.88-.8,1.06-.39.19-.93.07-1.41.09-.24,0-.48.03-.77.05.82,1.5,2.4,1.78,5.05.92-.27.48-.54.87-.71,1.3-.16.42-.22.89-.33,1.37,1.26-.16,2.42-.57,3.17-1.96h-.95c.3-.47.54-.83.85-1.32-.5-.12-.88-.22-1.56-.39.86-.67,1.53-1.19,2.3-1.79-.67-.37-1.23-.69-2.02-1.12.49-.3.77-.42.98-.61.57-.52,1.09-1.01,1.15-1.92.12-1.65.41-3.29.65-5.02.56.36.29.88.32,1.29.06.68.05,1.27.53,1.92.42.57.29,1.56.36,2.36.03.41-.03.83-.06,1.33.47.14.92.27,1.48.44-.25.43-.47.81-.81,1.4.75.31,1.45.6,2.18.89-.2.38-.41.8-.66,1.29h-1.42c.22,1.82.8,2.32,3.57,2.96-.24.21-.41.35-.57.49.72,1.01,1.67.15,2.86.32-.94.39-.91,1.31-1.63,1.52-.65.19-1.35.22-2.22.35.96.9,1.72,1.78,3.14,1.29.48,1.44-.87,1.65-1.62,2.41,2.29.87,4.38,1.9,6.8,1.88,3.5-.03,6.99.02,10.49.05.49,0,.98.07,1.47.11-.01.11-.02.23-.04.34-46.77-.24-93.54-.48-140.31-.72,0-.08,0-.15,0-.23h1.57c3.39.03,6.78-.02,10.16.09,1.46.05,2.73-.23,3.96-1.18-1.37-.31-2.73-.52-3.86-2.01,1.3.09,2.31.33,3.25.19.98-.15,1.94-.6,2.82-1.07.87-.46,1.79-.95,2.19-1.94-.1-.16-.15-.33-.21-.33-1.46-.08-2.93-.1-4.38-.24-.7-.07-1.38-.39-2.07-.59,0-.13,0-.27.01-.4,1.4-.34,2.81-.68,4.21-1.03,0-.09,0-.18-.01-.27-.92-.19-1.85-.39-2.77-.58,0-.11,0-.22.01-.33,1.11-.12,2.24-.19,3.34-.39,1.07-.19,2.18-.37,3.17-1.3-1.38-.57-2.97.52-3.9-1.14.24-.86,1.38-.7,2-1.43-.34-.2-.7-.4-1.08-.61,1.2-.91,3.08.31,4.04-1.47-.81-.34-1.52-.65-2.27-.96.4-1.85,2.61-1.51,3.23-2.85-.24-.54-.69-1.05-.63-1.5.14-.94.63-1.83.82-2.77.18-.9.16-1.83.23-2.89,1.38,1.76,1.92,5.74,1.07,7.56.97.93,1.43,2.59,3.41,2.14-.16,1.71-1.67,1.7-2.59,2.34.3,1.71.36,1.77,1.93,1.97.26.03.57.02.77.16.24.16.53.45.53.69,0,.25-.26.63-.5.72-.54.21-1.14.27-1.88.43.98,1.18,2.12,1.72,3.62,1.5.14,1.06-.53,1.41-1.24,1.66-.65.22-1.25.33-1.61,1.11-.16.35-1,.39-1.53.57.7,1.39,1.53,1.72,2.45.62,1.64-1.95,3.66-3.06,6.1-3.57.52-.11.99-.41,1.5-.55,1.68-.44,2.14-1.13,1.86-2.81-.03-.16-.03-.32-.05-.57-1.14-.09-2.29-.18-3.44-.27-.02-.11-.03-.22-.05-.32.89-.38,1.79-.75,2.83-1.19-1.1-.37-2.03-.64-2.92-.99-1.21-.48-1.4-.88-1.15-2.27-.85-.47-1.73-.96-2.61-1.44,0-.1.01-.2.02-.3.54,0,1.09-.03,1.63,0,3.27.11,6.54.29,9.81.32,2.05.02,3.97-.61,6.01-1.69-1.83-.7-3.47.49-5.02-.17-.7-1.57.86-2.04,1.48-3.21-.57-.13-1.09-.28-1.62-.36-1.53-.25-3.08-.45-4.61-.7-.57-.09-1.25-.13-1.2-.99.05-.84.67-.85,1.29-.83,1.46.05,2.88.07,4.16-.87.4-.29,1.02-.28,1.55-.38.26-.05.57.02.79-.09.61-.31,1.16-.77,1.8-1.03.55-.22,1.18-.24,1.81-.63-1.17-.56-2.29-1.27-3.52-1.63-1.19-.35-2.5-.32-3.8-.47-.58-1.17.16-1.86,1.01-2.5-1.34-.7-2.6-1.35-3.86-2.01l.08-.18c2.28.01,4.56.08,6.83,0,1-.03,2.02-.25,2.98-.56.44-.14.89-.62,1.07-1.06.36-.85-.26-1.58-1.2-1.53-.96.05-1.92.14-2.88.18-.68.03-1.34-.09-1.48-.91-.12-.74.24-1.19.91-1.52,1.14-.56,2.18-1.31,3.6-.97.33.08.78-.38,1.2-.6-.67-1.27-1.31-2.35-1.8-3.5-.19-.45-.08-1.05.01-1.57.06-.35.27-.72.51-.99,1.14-1.28,1.52-2.74,1.45-4.44-.04-.99.35-1.99.67-2.99.44,1.23,1.26,2.28,1.18,3.69-.04.64.36,1.31.6,1.95.23.59.64,1.14.75,1.75.15.84.16,1.71.83,2.36.07.07.16.19.15.28-.27,1.77,1.27,2.39,2.18,3.39.56.62,1.44.98,1.48,1.84-.73.79-1.32,1.55-2.05,2.17-.47.4-1.1.71-1.7.8-.78.12-1.28.48-1.72,1.18,1.53,1.13,2.87,2.55,4.93,2.74.67.06,1.08.42,1.18,1.11.03.2.08.46.21.58.67.61.41,1.22-.07,1.68-.96.94-1.98,1.81-3.46,1.83-.53,0-1.05.25-1.86.46,1.37,1.64,3.2,1.24,4.16,1.82,1.91-1.73,3.71-3.26,5.37-4.94.44-.45.44-1.33.72-2.24-1.74.33-3.26,1.51-4.79-.16,1.11-1.09,3.43-1.02,3.19-3.43-.89,0-1.79.03-2.69-.02-1.37-.09-1.78-.49-1.99-1.94.5-.07,1.01-.23,1.51-.21,2.58.12,4.89-.7,6.97-2.11,1.28-.87,2.4-1.98,3.57-3,.6-.52.75-1.25.85-2.2-.53.38-.87.71-1.27.9-.37.17-.9.4-1.19.26-1.02-.49-1.95-.4-2.95,0-.26.1-.61-.04-.88-.06-.51-1.05.58-1.29.9-1.97-1.17-.4-2.3-.78-3.4-1.15.14-.93.73-.9,1.25-.87,2.31.13,4.3-.8,6.25-1.85,1.28-.69,1.63-1.37,1.55-2.74-1.18.09-2.1,1.32-3.5.83.44-.4.83-.75,1.38-1.25-1.07-.53-2.02-1-3.12-1.55.13-.2.26-.68.56-.82,1-.5,2.03-1.08,3.1-1.24,1.24-.19,1.57-.89,1.81-1.84-.82-.36-1.76-.53-2.32-1.08-1.07-1.05-1.68-2.79-1.82-4.43,1.71,1.84,3.58,1.77,5.69.96-.92-1.34-.57-2.55-.2-3.9.51-1.84.72-3.77.96-5.68.17-1.32.18-2.66.27-4.19.21.25.34.33.36.43.19,1.59.9,2.96,1.75,4.27.45.68.47,1.39.33,2.16-.15.89-.25,1.8-.32,2.7-.09,1.13-.16,2.22-1.06,3.1-.58.57-.5.65.14,1.91.99-.38,1.97-.58,2.94.24.31.26,1.01.05,1.55.05.48,1.72-.03,2.26-3.49,3.62-.22.73-.09,1.19.81,1.32.73.1,1.44.34,1.97.47.44.57-.43,1.23.42,1.44.43.11.9.07,1.34.09,0,1.89-.29,2.1-4.16,2.91.6.37,1.04.61,1.44.91.63.48,1.46.89,1.77,1.54.77,1.59,2.08,2.06,3.63,2.24.77.09,1.55.14,2.37.44-.39.22-.78.45-1.26.72.93.83,1.98.3,3.06.27-.69,1.09-1.58,1.57-2.76,1.5-2.06-.12-4.13-.24-6.41-.37.5.7.91,1.45,1.49,2.03.68.69,1.19,1.37.92,2.4,1.05.72,2.1.9,3.27.64.45-.1,1.07-.27,1.39-.06,1.12.75,2.45.74,3.64,1.2,1.4.54,2.75.83,4.49-.02-1.18,2.15-3.16,2.49-4.95,3.31.71.38,1.26.68,1.88,1.01-1.78,2.12-4.04,1.79-6.39,1.5.21.52.39.97.61,1.52-.55.17-.99.3-1.43.44,1.84,2.57,5.67,3.86,11.34,4.49-.49.11-.98.25-1.48.32-.51.07-1.03.06-1.6.28,1.29.59,2.58,1.18,3.91,1.79-.89.87-3.34,1.55-4.67,1.38-.05,0-.11-.01-.16-.03-.93-.25-1.86-.69-2.8-.7-.9-.01-1.8.43-2.79.69.29.97.81,1.76,1.89,2.08.41.12.83.27,1.19.49,2.67,1.7,5.73,2,8.73,2.47.61.1,1.27-.09,1.91-.15.61-.06,1.21-.13,2.15-.23-1,1.73-2.37,2-3.8,2.2-1.15.16-2.29.41-3.72.67,1.29,1.52,2.96,1.58,4.29,2.26,1.41.72,2.92.35,4.72.09-.77,1.46-1.78,2.23-3.06,2.39-2.4.31-4.82.35-7.11-.71-.39-.18-.8-.3-1.21-.43-.09-.03-.2.04-.47.1.82.53,1.55.99,2.41,1.55-1.55.87-3.14.25-4.94.64,3.1,1.82,6.29,2.43,9.85,3.04-2,.9-3.85.72-5.67.86.79,1.13,3.48,2.18,7.09,2.77-.33-.5-.6-.91-.9-1.36,1.71-.07,3.33,1.32,5.28.13-1.19-.48-2.16-.84-3.09-1.26-.94-.43-.96-.94-.09-1.81-.29-.36-.59-.73-.89-1.11.11-.08.19-.18.24-.17.94.2,1.87.5,2.81.58.5.04,1.02-.28,1.52-.63-1.22-.21-2.46-.09-3.44-1.05.48-.78,1.28-1.01,2.1-1.26.79-.24,1.54-.61,2.54-1.01-1-.56-2.14.01-2.67-1.18.7-.37,1.39-.72,2.02-1.05-.8-.64-1.57-1.25-2.57-2.05,1.22-.39,2.13-.68,2.89-.93ZM375.03,341.87c-1.18-.8-2.48-1.64-4.15-.84.8,1.32,2.03,1.2,3.5.81-.49.94-.85,1.64-1.21,2.34.1.08.2.15.3.23.47-.32,1.07-.55,1.36-.98.25-.37.13-.98.19-1.56Z"/>
    <path class="cls-3" d="M785.98,293.16l-20.91-13.89v-.06s-.05.03-.05.03l-.05-.03v.06s-21.41,13.27-21.41,13.27v23.16c-12.86,4.09-25.97.68-30.94-.95l.3-10.3-14.76-10.95v-.05s-.03.02-.03.02l-.03-.03v.05s-15.11,10.46-15.11,10.46v42.04h14.68s11.48,0,11.48,0h0s34.57,0,34.57,0v-.15h20.64v-.02s19.91.02,19.91.02l1.72-52.7Z"/>
  </g>
  <g id="Clipping_Mask" data-name="Clipping Mask">
    <path class="cls-3" d="M529.51,336.22c.11-1.55.19-2.79.3-4.02.08-.94.62-1.84.16-2.82-.04-.09.1-.27.17-.42.71.7,1.64,3.52,1.81,5.49.28.08.59.16,1.04.28-.46.62-.84,1.12-1.35,1.8.9.32,1.72.61,2.75.97-.41.67-.75,1.23-1.12,1.83,1.04.67,2.13.76,3.25,0,.03,2.02-.14,2.21-2.38,2.76.39.63.96.78,1.64.84.32.03.62.28.92.43-.24.38-.39.91-.74,1.1-.38.21-.93.12-1.4.16-.24.02-.48.06-.77.09.9,1.46,2.49,1.65,5.09.64-.24.49-.49.9-.64,1.34-.14.43-.17.9-.25,1.38,1.25-.23,2.38-.71,3.06-2.13l-.95.05c.28-.48.49-.86.78-1.36-.5-.09-.89-.17-1.58-.3.82-.71,1.46-1.28,2.19-1.91-.69-.34-1.27-.62-2.08-1.01.47-.33.74-.46.94-.66.54-.55,1.03-1.07,1.04-1.98.03-1.65.23-3.3.37-5.05.58.32.33.86.4,1.27.1.67.12,1.26.64,1.89.45.55.38,1.54.49,2.34.06.41.01.84.02,1.33.48.12.93.22,1.5.36-.22.44-.42.84-.73,1.44.77.27,1.48.51,2.23.77-.18.4-.37.82-.59,1.32l-1.42.07c.32,1.82.93,2.28,3.73,2.76-.23.22-.39.37-.54.52.77.97,1.67.06,2.87.16-.92.44-.84,1.36-1.54,1.61-.64.23-1.34.3-2.2.47,1,.84,1.82,1.68,3.21,1.11.56,1.41-.77,1.7-1.48,2.5,2.34.74,4.47,1.65,6.89,1.5,3.49-.22,6.98-.37,10.47-.54.49-.02.98.01,1.48.02,0,.11-.01.23-.02.34-46.71,2.37-93.42,4.73-140.13,7.1,0-.08,0-.15-.01-.23l1.57-.08c3.38-.17,6.77-.4,10.15-.49,1.46-.04,2.71-.39,3.89-1.39-1.38-.23-2.76-.37-3.97-1.79,1.3.02,2.32.21,3.26,0,.97-.21,1.9-.71,2.76-1.22.85-.51,1.74-1.05,2.08-2.06-.11-.16-.17-.32-.23-.32-1.46,0-2.93.07-4.39,0-.71-.03-1.4-.31-2.1-.47,0-.13,0-.27-.01-.4,1.38-.42,2.77-.84,4.15-1.26,0-.09-.02-.18-.03-.26-.93-.14-1.87-.28-2.8-.42,0-.11,0-.22,0-.33,1.1-.19,2.22-.31,3.31-.57,1.06-.25,2.16-.49,3.09-1.47-1.41-.49-2.94.69-3.95-.92.19-.87,1.34-.78,1.92-1.54-.36-.18-.73-.36-1.11-.55,1.15-.97,3.1.14,3.96-1.7-.83-.3-1.56-.56-2.32-.83.29-1.87,2.52-1.65,3.06-3.03-.27-.52-.75-1.01-.71-1.46.09-.95.53-1.86.67-2.81.13-.91.05-1.84.07-2.9,1.47,1.68,2.24,5.63,1.49,7.48,1.02.87,1.57,2.51,3.52,1.94-.06,1.72-1.57,1.79-2.45,2.48.39,1.69.46,1.75,2.03,1.86.26.02.57-.01.78.11.25.15.55.42.57.66.02.25-.22.64-.45.74-.53.24-1.12.34-1.85.54,1.05,1.13,2.21,1.6,3.7,1.29.2,1.05-.45,1.44-1.15,1.73-.64.26-1.23.4-1.54,1.2-.14.36-.98.44-1.49.65.78,1.34,1.62,1.63,2.49.48,1.53-2.04,3.48-3.26,5.89-3.9.51-.14.96-.47,1.47-.63,1.65-.54,2.08-1.25,1.7-2.91-.04-.16-.05-.32-.08-.56-1.15-.03-2.3-.05-3.45-.08-.02-.11-.05-.21-.07-.32.87-.43,1.74-.85,2.76-1.35-1.12-.31-2.06-.52-2.98-.83-1.24-.41-1.45-.8-1.27-2.2-.88-.42-1.78-.86-2.68-1.29,0-.1,0-.2,0-.3.54-.03,1.09-.09,1.63-.1,3.27-.07,6.55-.07,9.82-.23,2.04-.1,3.93-.83,5.91-2.03-1.87-.59-3.44.68-5.02.11-.78-1.53.74-2.08,1.3-3.28-.58-.1-1.1-.22-1.64-.27-1.55-.16-3.1-.28-4.64-.45-.57-.06-1.26-.06-1.25-.92,0-.84.62-.89,1.24-.9,1.46-.03,2.88-.09,4.1-1.1.38-.31,1-.33,1.52-.47.26-.07.57,0,.79-.13.6-.35,1.12-.84,1.74-1.13.54-.25,1.17-.3,1.77-.73-1.2-.49-2.36-1.14-3.6-1.43-1.21-.28-2.51-.18-3.82-.26-.65-1.13.05-1.87.87-2.56-1.38-.62-2.67-1.21-3.96-1.79l.07-.18c2.27-.12,4.55-.18,6.82-.37,1-.09,2.01-.37,2.95-.72.43-.16.86-.67,1.01-1.11.31-.87-.35-1.57-1.28-1.47-.96.1-1.91.25-2.87.34-.67.06-1.34-.01-1.52-.83-.17-.73.18-1.2.82-1.57,1.11-.63,2.11-1.43,3.54-1.17.33.06.76-.42,1.17-.67-.74-1.23-1.44-2.27-1.99-3.39-.21-.43-.14-1.05-.08-1.57.04-.36.23-.73.45-1.02,1.07-1.34,1.36-2.82,1.2-4.52-.09-.98.24-2,.51-3.02.51,1.21,1.38,2.21,1.38,3.62,0,.64.43,1.29.71,1.91.26.58.7,1.11.84,1.71.2.83.25,1.7.96,2.31.08.07.17.18.17.27-.17,1.78,1.4,2.31,2.37,3.26.6.58,1.49.9,1.58,1.75-.68.82-1.23,1.63-1.92,2.28-.44.42-1.06.77-1.65.9-.77.16-1.25.55-1.65,1.28,1.59,1.04,3.01,2.39,5.07,2.46.67.02,1.1.36,1.24,1.04.04.2.1.45.25.57.7.57.47,1.19.02,1.68-.91.99-1.87,1.92-3.36,2.02-.53.04-1.04.31-1.83.56,1.46,1.56,3.26,1.06,4.25,1.59,1.81-1.83,3.52-3.47,5.09-5.23.42-.47.37-1.35.59-2.28-1.72.43-3.17,1.69-4.8.1,1.05-1.15,3.37-1.21,3-3.6-.89.04-1.79.13-2.69.13-1.37,0-1.8-.39-2.09-1.83.5-.1,1-.29,1.5-.29,2.58-.03,4.84-.97,6.84-2.5,1.23-.94,2.28-2.11,3.39-3.2.57-.56.68-1.29.72-2.25-.51.41-.83.76-1.22.97-.36.19-.87.45-1.17.33-1.04-.43-1.97-.29-2.94.17-.25.12-.62,0-.88-.01-.57-1.02.51-1.32.79-2.02-1.19-.33-2.34-.65-3.46-.96.09-.94.67-.94,1.2-.94,2.31,0,4.25-1.04,6.14-2.19,1.24-.76,1.55-1.46,1.39-2.82-1.17.15-2.03,1.44-3.45,1.02.42-.43.78-.8,1.31-1.33-1.1-.47-2.07-.88-3.2-1.37.12-.21.22-.69.51-.85.97-.55,1.96-1.19,3.03-1.42,1.22-.26,1.52-.98,1.71-1.94-.84-.32-1.79-.43-2.38-.95-1.13-.99-1.83-2.69-2.06-4.32,1.81,1.74,3.67,1.57,5.73.64-.99-1.28-.71-2.52-.42-3.88.41-1.87.5-3.81.64-5.72.09-1.33.03-2.67.04-4.2.22.23.36.31.38.41.28,1.57,1.06,2.91,1.99,4.17.48.66.54,1.36.45,2.14-.1.9-.15,1.81-.17,2.71-.03,1.13-.04,2.22-.88,3.16-.54.6-.46.67.24,1.9.97-.43,1.93-.69,2.95.08.32.24,1.01-.01,1.55-.04.58,1.69.1,2.26-3.28,3.81-.18.74-.02,1.2.88,1.27.73.06,1.45.26,2,.36.47.55-.36,1.25.5,1.41.44.08.9.02,1.35.02.11,1.88-.18,2.12-3.99,3.14.62.34,1.08.55,1.49.83.65.45,1.51.81,1.86,1.44.86,1.54,2.19,1.94,3.75,2.04.78.05,1.55.05,2.39.31-.38.25-.76.49-1.22.79.97.78,2,.18,3.07.1-.63,1.13-1.49,1.65-2.67,1.65-2.07,0-4.13-.01-6.42-.02.54.67.99,1.39,1.6,1.94.71.65,1.27,1.3,1.06,2.34,1.09.66,2.15.79,3.3.45.45-.13,1.06-.33,1.38-.14,1.16.69,2.49.6,3.7.99,1.42.46,2.79.67,4.48-.27-1.05,2.21-3.01,2.66-4.76,3.59.73.34,1.3.61,1.93.91-1.66,2.21-3.93,2.01-6.29,1.85.24.51.44.95.69,1.48-.54.2-.97.36-1.4.52,1.98,2.46,5.88,3.53,11.58,3.85-.49.14-.97.31-1.46.4-.51.1-1.02.12-1.58.37,1.32.52,2.64,1.03,4.01,1.57-.84.91-3.25,1.73-4.59,1.64-.05,0-.11,0-.16-.02-.94-.2-1.9-.59-2.83-.55-.9.04-1.77.52-2.75.84.35.95.9,1.71,2,1.97.41.1.84.22,1.21.43,2.76,1.55,5.83,1.68,8.86,1.98.62.06,1.27-.16,1.9-.25.6-.09,1.2-.19,2.14-.35-.9,1.78-2.25,2.13-3.67,2.41-1.14.23-2.27.54-3.68.88,1.37,1.45,3.04,1.42,4.41,2.02,1.45.64,2.94.19,4.72-.17-.68,1.5-1.65,2.33-2.92,2.56-2.38.44-4.79.61-7.14-.31-.4-.16-.82-.26-1.23-.36-.09-.02-.2.05-.47.12.85.48,1.6.91,2.49,1.41-1.5.96-3.12.42-4.9.92,3.2,1.64,6.42,2.08,10,2.49-1.95,1.01-3.8.93-5.61,1.17.85,1.08,3.6,1.98,7.23,2.37-.36-.48-.65-.87-.98-1.31,1.71-.16,3.4,1.14,5.28-.16-1.22-.42-2.2-.72-3.16-1.09-.96-.37-1.01-.89-.19-1.81-.31-.35-.63-.7-.95-1.06.11-.09.18-.19.23-.19.95.14,1.89.39,2.84.42.5.02,1.01-.34,1.48-.71-1.23-.14-2.46.04-3.5-.86.44-.81,1.22-1.08,2.03-1.38.77-.28,1.51-.69,2.48-1.15-1.03-.51-2.14.13-2.73-1.03.68-.4,1.34-.8,1.96-1.16-.84-.59-1.64-1.16-2.68-1.9,1.2-.46,2.09-.8,2.83-1.09ZM539.57,349.44c-1.22-.74-2.57-1.5-4.19-.61.87,1.28,2.09,1.09,3.54.62-.43.97-.75,1.68-1.07,2.4.11.07.21.14.32.21.45-.34,1.04-.61,1.3-1.06.23-.38.08-.98.1-1.56Z"/>
  </g>
</svg>