<?xml version="1.0" encoding="UTF-8"?>
<svg xmlns="http://www.w3.org/2000/svg" viewBox="0 0 1366 784">
  <defs>
    <style>
      .cls-1 {
        fill: #39090a;
        stroke-width: 0px;
      }
    </style>
  </defs>
  <g id="Hintergrund">
    <path class="cls-1" d="M1349,491.76c-14,0-14,2-31,6.01-17,4.01-26,0-43,1-17,1-29,6.01-46,12.03-17,6.01-18,3.01-33,3.01s-40,3.01-46,4.01c-6,1-15,6.01-19,4.01s-14-3.01-20,3.01c-6,6.01-30,12.03-37,14.03-7,2-14,0-21-1-7-1-10-5.01-16-8.02-6-3.01-17-8.02-22-11.02-5-3.01-17-4.01-24-5.01-7-1-10-14.03-14-16.03s-6-1-11-2-8-5.01-13-6.01-5,1-8,4.01-12,2-20,2-6,4.01-10,11.02-11,4.01-19,4.01-13-5.01-19-8.02c-6-3.01-8-4.01-10-9.02s-11-2-17-2-4,1-7,5.01-6,4.01-9,7.02-11,6.01-17,6.01-19-6.01-25-9.02-12-5.01-18-6.01c-6-1-10-5.01-16-7.02-6-2-21,1-23,2s-10,6.01-20,3.01c-10-3.01-6-4.01-16-7.02-10-3.01-9-1-12-1s-10-1-14-7.02-17-4.01-21-6.01-11,0-19,0-15,5.01-19,6.01-16-6.01-24-6.01-10,6.01-14,6.01-5-4.01-5-4.01c0,0-10-5.01-16-11.02-6-6.01-19-3.01-21,2s-6,7.02-10,9.02-5,0-6,1-13,6.01-15,4.01-8-2-11-2-12-1-15-4.01-10-6.01-10-6.01c0,0-13,1-16-3.01s-14-8.02-14-8.02c0,0-12,9.02-14,4.01s-9-9.02-14-12.03-18-1-22,2-19,0-19,0c0,0-5-4.01-6-3.01s-7,0-7,0c0,0-13-1-15,3.01s-3,3.01-7,3.01-7,8.02-8,9.02-6,1-10-2-13-6.01-13-6.01c0,0-10-1-11-4.01s-8-7.02-14-8.02-18-9.02-18-9.02c0,0-13-5.01-29-5.01s-34-14.03-34-14.03c0,0-38,8.02-50-9.02s-22-14.03-22-14.03c0,0-18,2-21-1s-11-3.01-11-3.01c0,0-16,3.01-19-4.01s-19-13.03-19-13.03c0,0-24-2-27,2s-27,6.63-27,6.63l-.02,405.87h1366l.02-289.78s-3-2.45-17-2.45Z"/>
  </g>
  <g id="Clipping_Mask" data-name="Clipping Mask">
    <path class="cls-1" d="M415.36,400.84c-.99-.11-1.98-.22-3.28-.37.37.68.61,1.26.97,1.76,1.78,2.47,1.54,3.43-1.26,4.82-.41.2-.82.39-1.12.53,1.41,6.02,6.06,6.93,11.12,7.21q-1.2,1.66-4.3,2.48c.73.79,1.41,1.51,2.7,2.89-3.38-.29-5.93-.5-8.43-.72.09,1.28.61,2.66.14,3.49-.46.83-1.91,1.1-3.03,1.68,3.42,4.11,7.61,3.5,12.19,2.78-1.53,1.04-3.06,2.08-5.11,3.47,4.07-.34,6.85-2.61,10.34-3.34-3.19,3.6-6.37,7.19-9.59,10.83.7.87,1.12,1.41,1.56,1.96-2.5,1.55-5.43-1.18-8.25.88,1.1.29,1.88.47,2.65.7,1.88.58,2.39,1.46,1.31,3.06-.94,1.39-2.39,2.44-4.05,4.08,2.81.53,4.89,2.55,7.68,2.14,3.31-.49,6.29.3,9.17,1.79,1.61.83,3.25,1.47,4.89.22.07-1.8.14-3.52.21-5.5,3.51.55,5.25-1.31,6.46-3.94,1.82-3.96,3.64-7.92,5.48-11.87.23-.49.55-.94,1.42-1.27-.39,3.72-.77,7.45-1.2,11.56,1.21-.72,2.06-1.23,2.91-1.74.15.11.3.21.44.32-.71,1.52-1.42,3.04-2.19,4.69,1.73.62,3.29.67,4.85-.51.72-.55,1.65-.9,2.54-1.13,2.15-.55,3.36-1.85,4.06-3.97,1.07-3.22,2.95-4.18,6.2-3.47,2.09.46,4.11.83,6.22-.11.77-.34,1.83-.25,2.72-.09,1.46.26,2.42-.12,3.09-1.63-3.33-.1-6.44-.2-10.14-.31.78-.99,1.15-1.45,1.56-1.98-1.09-2.21-4.77-1.45-5.49-5.02,5.57,1.34,10.89,2.76,16.48-1.2-2.45.01-4.23-.1-5.98.06-4.75.44-9.1-.33-12.85-3.52-.55-.47-1.35-.65-1.99-1.21,4.86-.95,9.74,1.2,14.57-.36,4.56-1.47,8.97-3.24,13.18-5.67-2.9-.26-5.79-.52-8.88-.79,3.47-2.51,7.06-4.7,10.16-7.45,2.98-2.65,6.58-5.04,7.4-9.74-3.73,2.21-7.05,4.79-10.8,6.23-3.65,1.4-7.74,1.63-12.08,2.46,1.4-1.85,3.15-2.61,4.82-3.43,3.13-1.54,5.71-3.63,7.67-6.99-3.46-.88-6.42.72-9.83.78.51-.78.95-1.44,1.72-2.63-1.88-.24-3.28-.43-4.69-.61-.04-.15-.08-.29-.13-.44,1.17-.35,2.35-.69,3.52-1.04,1.54-.46,3.21-.68,4.59-1.43,2-1.09,3.86-2.26,6.28-1.78.44.09,1.01.08,1.39-.12,3.24-1.8,6.73-3.27,9.3-6.27-2.58-2.01-5.2.45-7.78-.52.65-.6,1.23-1.14,1.91-1.78-.7-.78-1.36-1.52-2.02-2.25.18-.45.23-.85.45-1.08,1.45-1.53,3.33-2.12,5.36-2.44,2.48-.4,4.85-1.08,6.13-4.15-.1-.3-.37-1.05-.58-1.81-.44-1.58-.15-2.83,1.66-3.26,1.92-.45,2.84-1.73,3.58-3.52.93-2.24,2.33-4.28,3.47-6.44.44-.83,1.07-1.77.99-2.61-.38-4.01,2.49-6.71,3.81-10.03.11-.28.5-.44,1.31-1.12.05,1.4.17,2.35.09,3.27-.19,2.1-.2,4.28-.8,6.28-.98,3.25.12,6.27.55,9.37.1.69.68,1.38,1.18,1.95.7.78,1.7,1.32,2.27,2.16,1.31,1.93.62,3.66-1.62,4.3-.88.25-1.79.38-2.93.61,1.36,4.43,2.16,8.99,7.84,9.5.56,4.14-.45,5.26-6.03,6.65,1.48,5.46,4.35,9.97,8.83,13.64-2.77.26-5.29-.31-8.42-1.68,1.72,2.85,3.07,5.15,4.48,7.41,1.41,2.25,4.29,3.29,5.38,6.37-1.4.48-2.56.88-3.86,1.33.41.55.8,1.07,1.2,1.6-.9,1.54-5.97-1.83-10.18-6.78q-.38,2.85,3.79,8.07c-.4.49-.79,1.06-1.28,1.51-.41.38-.94.63-1.65,1.08,1.88,1.93,4.25,2.4,6.47,2.29,2.24-.11,4.44-1.06,7.04-1.75-.28,1.19-.48,2.02-.73,3.07,3.32-1.14,4.76-3.59,6.05-6.36-2.06-1.06-4-2.07-6.27-3.24,5.87-3.63,12.1-6.81,14.91-12.97-1.97,1.22-4.24,2.64-5.98,3.72-1.83-.63-3.08-1.06-4.54-1.57,2.17-1.52,4.4-3.09,6.8-4.78-2.51-1.66-4.75-3.15-7-4.64.09-.21.18-.43.27-.64,1.26.1,2.52.21,4.14.34-1.44-1.69-2.62-3.06-4.12-4.82,2.95.78,5.28,1.41,7.89,2.1-.25-.86-.37-1.27-.49-1.68,3.23-.26,3.35-.24,3.9-3.46.31-1.82,1.19-2.88,2.73-3.8,1.21-.73,2.77-1.16,3.11-3.08.25-1.42-.68-1.32-1.41-1.78.39-.59.74-1.21,1.16-1.76,2.63-3.38,4.82-6.91,5.19-11.38.12-1.4,1.06-2.72,1.85-4.61.2,2.55.68,4.55.45,6.47-.47,3.9.46,7.43,1.88,10.96.88,2.18.99,4.36-1.55,5.93,2.15,3.71,4.27,7.35,6.69,11.53-2.12.42-3.89.96-5.68,1.07-3.45.21-3.77.5-2.99,3.96-1.19-.14-2.32-.28-3.44-.41-1.41,3.25-.89,5.27,2.36,6.88,5.03,2.48,10.18,2.68,15.22-.15,1-.57,1.96-1.22,3.04-1.9-.18,5.77-2.41,7.92-11.09,10.85,1.35,3.2,4.62,2.76,7.36,3.58-1.63,4.39-5.35,4.66-8.99,5.73,1.33.76,2.65,1.53,4.48,2.58-2.22.3-3.85.52-5.54-.13-1.31-.51-2.68-1.01-4.06-1.12-.75-.06-1.98.5-2.25,1.11-.27.62.13,1.86.66,2.44,1.34,1.47,2.94,2.69,4.41,4.05,1.87,1.73,3.82,3.14,6.62,2.55.46-.1,1.02.35,1.51.54-.14,3.87-2.51,5.68-5.73,6.63.18.63.17,1.09.39,1.27,3.33,2.72,6.67,5.45,10.09,8.06.55.42,1.53.29,2.32.35.88.07,1.76.06,2.64.08-.19,5.02-2.68,7.33-8.99,8.68,1.03.99,2.33,1.84,3.04,3.04.95,1.61-.9,2.4-1.64,3.48,5.14,3.23,6.92,2.75,9.01-2.38-.77-.69-1.54-1.4-2.32-2.08-.74-.65-1.49-1.28-2.41-2.06,4.18-2.35,7.85-5.18,9.69-10.22-1.21.15-2.18.28-3.43.43-.16-.58-.32-1.18-.57-2.1-1.15-.22-3.43-.11-3.71-.8-1.05-2.59-4.69-1.67-5.53-4.76,1.92-.03,3.72.1,5.47-.14,1.83-.26,3.61-.89,5.4-1.36-1.26-5.22-.88-6.04,3.88-8.96.08-1.5.17-2.95.25-4.52-1.46-1.5-4.17-2.12-4.41-5.5,3.56,2.12,7.08,3.04,10.74,1.64.61-.23.86-1.42,1.43-2.45-1.77.15-3.01.25-4.58.38,3.33-2.93,5.29-6.36,6.92-9.91,1.66-3.61,2.83-7.44,4.42-11.73.76,3.86.4,7.2,0,10.55-.21,1.76-.7,3.51-.67,5.25.04,2.99.46,5.91,3.77,7.33,1.24.53,1.77,1.68,1.35,2.93-.51,1.52-1.3,2.94-2.19,4.91.03,3.12,3.76,2.07,5.47,3.64,1.37-.71,2.71-1.41,4.46-2.32-.74,3.15-3.42,4.16-4.93,6.37l2.94.56c-2.41,2.7-5.71,1.6-8.7,2.97,4.65,4.38,10.25,5.16,16.14,5.16.74,3.97-2.04,5.67-4.4,8.02,1.51.05,2.64.08,3.78.11.06.14.12.29.19.43-1.16.46-2.28,1.18-3.48,1.34-2.91.4-5.84.6-8.77.75-1.52.08-3.06.28-3.35,1.92-.24,1.42.71,2.36,2.09,3.25,4.3,2.78,8.89,2.73,13.9,2-2.26,4.78-7.32,5.38-10.69,8.68,3.34-.04,6.67-.08,10.4-.12-.76.58-1.77.97-1.8,1.43-.25,3.85-3.39,4.76-6.02,6.22-.61.34-1.18.73-1.8,1.12q3.72,3.74,2.38,8.98c-.03.11-.05.23-.1.34-3.21,6.7-.44,12.19,3.47,17.5,2.19,2.98,3.47,6.16.96,10.14-111.11-21.39-222.53-41.69-333.69-64.16.44-.13.95-.47,1.3-.35,2.33.84,4.03-.29,5.85-1.51,7.92-5.3,16.16-10.16,23.34-16.52,1-.89,2.02-1.76,2.91-2.88-2.98-.01-6.16,3.25-8.51-1.19-1.27.4-2.48.97-3.73,1.14-2.54.34-5.13.78-7.66.59-2.91-.21-2.89-.49-2.77-3.71-3.34-.45-5.95-1.79-6.24-6.3,4.32,1.69,8.49,1.36,12.62.87,4.13-.5,7.74-2.52,11.25-4.82-3.71-.31-7.09,1.58-11.04,1.66,1.59-2.26,3.39-3.81,5.74-4.73,5.38-2.12,10.74-4.26,16.13-6.34,2.67-1.03,5.08-2.4,7.54-5.3-4.67,1.41-8.16,4.14-12.86,3.8.79-1.12,1.48-2.09,2.54-3.59-3.96.43-7.5.64-10.97,1.25-2.86.5-3.75.52-6.24-1.47,1.92-.75,3.72-1.46,6.15-2.41-5.16-1.83-11.12-.66-14.01-6.78,5.16.95,9.98,2.18,15.09.74-1.55-1.66-2.89-3.09-4.74-5.08,1.47-.27,2.31-.62,3.1-.52,2.1.27,4.23.59,6.26,1.17,5.16,1.47,9.78-.06,14.3-2.31,2.11-1.05,4.21-2.12,6.2-3.39,1.34-.85,2.46-2.06,3.59-3.03-1.2-2.16-2.32-2.07-3.98-1.08-2.27,1.36-4.77,2.32-7.49,3.6.08-1.19.12-1.74.16-2.37-3.76.05-7.54.54-11.18-1.59,1.21-2.07,2.91-2.68,5.02-2.53,4.22.29,7.92-.89,10.93-3.94.23-.23.35-.58.51-.86-2.77-2.19-5.99-1.53-9.07-1.7-2.52-.14-5.31.41-7.09-2.87,1.86-.21,3.53-.4,5.21-.59-3.37-2.15-7.98-2.02-9.5-7.38,1.46.23,2.44.31,3.38.55,5.09,1.3,10.21,1.77,15.41.78,3.09-.59,5.88-1.66,7.73-4.73-2.72-1.89-6.1-.52-9-2.03-2.59-1.34-5.9-1.3-9.24-1.94.59-.79.97-1.3,1.45-1.94-1.18-.78-2.36-1.56-4.11-2.72,3.38.37,5.96.83,8.56.89,4.07.08,7.97-.68,11.39-3.12,1.24-.89,2.18-1.82,1.44-3.52-3.95.67-7.68.4-10.88-2.07-.01-.32-.03-.65-.04-.97,1.58-.47,3.16-.95,5.04-1.51-1.6-2.11-5.57-2.12-4.66-5.99,2.41.08,4.93,1.92,7.38-.34-.81-.67-1.59-1.32-2.38-1.97.05-.21.11-.42.16-.63,2.43.46,4.84,1.22,7.28,1.3,2.37.07,5.11.52,7.31-2.29l-4.82-.92c-.68-2.19.7-2.58,2.03-3.11,1.15-.46,2.23-1.11,4.03-2.03l-7.99-1.52c0-.16.02-.32.02-.49.86-.15,1.71-.31,2.7-.48.08-.68.16-1.32.26-2.1,3.13-.29,4.92-2.22,6.49-4.81,1.6-2.63,3.23-5.11,3.53-8.29.1-1.1.87-2.14,1.77-3.13-.08,3.29.17,6.62-.33,9.85-.71,4.64.89,7.74,5.57,9.87-1.41.84-2.46,1.47-3.62,2.16.45.52.9,1.03,1.35,1.55q-1.97,1.16-4.85.18c-.3.95-.59,1.89-.99,3.15,1.71.92,3.32,1.78,4.99,2.68q.12,4.48-5.21,6.59c2.06,4.25,5.82,6.4,10.27,6.02.83-.07,2.16.1,2.43.61.34.64.02,1.81-.34,2.61-1.07,2.34-2.64,3.52-6.31,5.02,2.67,4.28,6.94,3.49,11.07,4.15-1.33.46-2.66.92-4.11,1.42.13.49.27,1.02.42,1.57-.19.07-.4.23-.57.19-3.86-.73-7.84-.87-11.34-3.1-1.03-.65-2.64-.37-4.06-.53,1.61,9.35,7.5,13.51,19.25,14.02-4.37,1.34-8.2,4.35-13.1,4,1.05,1.76,3.27,3.48,5.96,3.87,2.52.36,5.12.18,7.69.24-.09,2.94-.82,3.56-5.13,4.02.57.5.93.81,1.4,1.22-.26.2-.48.51-.73.53-2.14.2-4.21.3-6.38.98-3.05.95-6.29.16-8.81-2.35-1.66,4.56-.43,9.8,3,12.75,1.87,1.61,3.98,2.95,5.91,4.49.82.66,1.9.89,2.09,2.51.11.88,2.33,1.51,3.76,2.34-.66.54-1.41,1.16-2.17,1.78,7.38.2,13.26-2.95,18.26-8.09-1.48.85-2.91,1.8-4.45,2.5-1.6.73-3.28,1.31-4.97,1.75-1.39.36-1.62-.04-3.59-1.19-1.47-.86-3.23-1.2-4.84-1.82-1.68-.65-2.92-1.78-3.94-3.76,3.59-.26,6.99,2.42,10.14-.65l-7.54-1.44c.7-.63,1.02-.93,1.56-1.41-.58-.86-1.19-1.76-1.92-2.83,3.7.36,7.06.76,10.43,1.01,4.89.36,9.35-.86,13.2-4,1.58-1.29,2.81-2.79,3.34-5.28-2.33.45-4.4.85-6.48,1.26-.08-.15-.15-.3-.23-.45.54-.44,1.08-.89,2.03-1.66-3.85-.63-7.85.48-11-3.06,3.04-.22,5.88,1.45,8.35-1.37-1.94-.71-4.05-1.05-5.58-2.18-1.57-1.15-2.98-2.84-3.22-5.72,3.9,1.99,6.99,5.56,11.61,3.46.03-.43.07-.97.09-1.32,2.51-.89,4.9-1.75,7.81-2.78-1.33-.69-2.04-1.06-2.95-1.53-2.12,1.98-4.9,1.55-7.54,1.57-.77,0-1.56-.67-2.64-1.18,2.14-1.04,3.82-1.86,5.41-2.63-.53-2.78-2.71-1.36-4.04-2.45.16-2.21,2.29-2.82,3.55-4.08,4.05,1.61,8.04,1.7,12.08.61,2-.54,3.27-1.77,3.56-4.05-.3-.29-.57-.69-.95-.89-1.75-.93-1.68-2.27-.53-3.46,1.52-1.58,2.78-3.19,2.78-5.5,2.89-2.83,3.16-6.96,5.25-10.93.09,4.18.16,7.71.25,11.23.01.58-.12,1.28.15,1.72,1.51,2.52.47,4.22-1.63,5.56.96,1.21,1.89,2.37,3.17,3.99-1.63.22-2.7.37-4.15.57,1.45,1.27,2.71,2.33,2.88,4.37.08.96,1.84,1.95,3.02,2.6.87.48,2.03.45,3.25.68-.82,3.1-3.77,2.19-5.36,3.41-1.98,1.52-4.03,1.74-6.8.62.34,3.31,1.06,6.27,3.15,7.65,1.98,1.31,3.24,4.64,6.76,3.11.04.25.07.5.11.75-1.56,1.05-3.12,2.09-4.79,3.21.38.38.92.93,1.66,1.68-3.06.76-5.63-.47-8.48-1.04-2.26,1.19-2.28,3.06-1.82,5.56.83,4.52,3.74,6.97,7.6,8.45,1.51.58,3.38.22,5.43.3-1.32,3.24-4.47,2.62-6.56,4.02.79.49,1.53.95,2.91,1.8-2.58.47-4.47.81-6.58,1.19.27.69.54,1.37.83,2.09-2.96.76-4.38-1.41-6.34-3.21-.91,4.21.29,7.59,2.18,11.59.34-1.25.49-1.81.73-2.69l5.08.97c.14-.74.39-1.22.28-1.61-.5-1.88.54-2.61,2.11-2.97,2.13-.48,4.05-1.26,5.15-3.62-.39-.67-.83-1.43-1.42-2.46,3.05-1.17,4.72-3.44,5.97-6.58-1.27-.4-2.53-.8-4.34-1.37,1.7-.96,3.17-1.61,4.42-2.55.97-.72,1.92-1.68,2.44-2.75,1.87-3.87,3.55-7.82,5.79-11.56-.95,3.79-1.91,7.58-2.86,11.36-.2.8-.38,1.61-.58,2.41-.61,2.49-.2,4.65,1.91,6.34.81.65,1.5,1.45,2.25,2.18-.1.21-.2.41-.3.62Z"/>
    <path class="cls-1" d="M1164.44,452.37c-1.11.33-2.23.65-3.69,1.08.7.56,1.22,1.08,1.84,1.46,3.03,1.85,3.21,2.99.82,5.76-.35.4-.71.79-.97,1.08,4.23,5.84,9.64,4.73,15.22,2.74q-.54,2.32-3.51,4.61c1.14.51,2.2.99,4.21,1.89-3.76,1.21-6.61,2.13-9.4,3.03.68,1.33,1.85,2.59,1.73,3.69-.12,1.1-1.56,2.05-2.51,3.17,5.54,2.88,9.76.34,14.37-2.51-1.18,1.81-2.36,3.62-3.94,6.04,4.23-2.2,6.19-5.9,9.62-8.25-1.81,5.31-3.61,10.61-5.44,15.97,1.14.63,1.84,1.01,2.56,1.4-1.99,2.8-6.37,1.18-8.48,4.66,1.31-.18,2.24-.35,3.17-.44,2.28-.22,3.23.49,2.79,2.7-.39,1.92-1.47,3.71-2.52,6.22,3.26-.69,6.41.54,9.22-1.16,3.35-2.02,6.9-2.52,10.67-2.21,2.11.17,4.16.12,5.36-1.97-.73-1.96-1.44-3.85-2.25-6.02,4.03-1,5.06-3.77,5.18-7.15.18-5.08.35-10.16.55-15.24.02-.63.17-1.27.95-2.01,1.26,4.18,2.53,8.36,3.92,12.98.97-1.32,1.66-2.25,2.34-3.18.21.05.41.1.62.14-.08,1.95-.16,3.91-.24,6.04,2.14-.11,3.84-.76,4.99-2.73.53-.91,1.37-1.71,2.22-2.36,2.06-1.56,2.78-3.51,2.58-6.1-.3-3.95,1.29-5.83,5.11-6.52,2.45-.45,4.8-.96,6.64-2.92.67-.72,1.86-1.09,2.88-1.32,1.69-.38,2.55-1.23,2.59-3.15-3.63,1.39-7.01,2.69-11.05,4.24.39-1.42.58-2.08.79-2.83-2.17-1.89-5.79.59-8.17-2.92,6.6-1.07,12.96-1.93,17.19-8.72-2.63,1.12-4.6,1.8-6.41,2.76-4.91,2.61-9.95,3.75-15.42,2-.8-.26-1.74-.09-2.69-.4,4.8-3.22,11.02-3.1,15.52-6.96,4.24-3.64,8.19-7.53,11.63-12.04-3.23,1.03-6.46,2.05-9.91,3.15,2.6-4.26,5.48-8.24,7.57-12.59,2.02-4.2,4.8-8.39,3.57-13.81-3.02,4.06-5.42,8.33-8.81,11.57-3.29,3.15-7.59,5.24-11.88,8.09.67-2.62,2.21-4.23,3.63-5.86,2.68-3.06,4.51-6.48,5.1-10.97-4.12.61-6.58,3.67-10.23,5.28.2-1.07.37-1.98.67-3.6-2.13.58-3.72,1.02-5.32,1.46-.11-.14-.22-.28-.33-.41,1.11-.9,2.22-1.8,3.32-2.7,1.45-1.19,3.14-2.18,4.29-3.61,1.66-2.07,3.13-4.18,5.95-4.75.52-.1,1.13-.37,1.44-.76,2.68-3.4,5.77-6.55,7.17-10.94-3.69-1-5.39,2.83-8.6,2.95.42-.94.8-1.78,1.25-2.77-1.11-.52-2.15-1.02-3.19-1.51,0-.57-.13-1.02,0-1.36.87-2.3,2.62-3.78,4.66-5.04,2.49-1.55,4.73-3.35,4.73-7.23-.24-.28-.87-.96-1.45-1.69-1.19-1.5-1.44-2.98.32-4.25,1.86-1.35,2.27-3.14,2.26-5.4-.01-2.83.57-5.66.83-8.49.1-1.09.35-2.39-.11-3.25-2.21-4.14-.35-8.35-.42-12.51,0-.35.34-.7.9-1.8.68,1.49,1.24,2.45,1.57,3.48.75,2.35,1.72,4.7,1.98,7.11.42,3.94,2.95,6.7,4.82,9.83.42.7,1.35,1.18,2.15,1.56,1.1.52,2.42.65,3.42,1.3,2.28,1.49,2.31,3.66.2,5.36-.83.67-1.75,1.21-2.88,1.98,3.47,4.16,6.38,8.69,12.71,6.68,2.47,4.2,1.89,5.87-3.49,9.87,4.06,5.2,9.17,8.77,15.65,10.69-2.86,1.53-5.83,2.06-9.81,1.99,3.14,2.29,5.62,4.16,8.16,5.95,2.53,1.78,6.1,1.6,8.66,4.43-1.29,1.15-2.36,2.1-3.55,3.17.69.41,1.35.79,2.01,1.18-.27,2.06-7.25.72-14.01-2.7q.88,3.24,7.71,6.97c-.21.71-.37,1.49-.69,2.2-.27.59-.73,1.1-1.28,1.91,2.89,1.23,5.65.66,7.99-.45,2.36-1.12,4.29-3.14,6.78-5.06.23,1.41.39,2.39.6,3.64,3.06-2.72,3.5-6.01,3.64-9.56-2.69-.22-5.24-.42-8.21-.66,4.67-6.56,9.95-12.78,10.19-20.68-1.57,2.2-3.37,4.75-4.75,6.69-2.25.15-3.8.25-5.59.36,1.65-2.62,3.34-5.3,5.16-8.21-3.45-.66-6.54-1.25-9.62-1.84,0-.27,0-.54,0-.81,1.4-.46,2.8-.91,4.61-1.5-2.32-1.17-4.2-2.12-6.6-3.33,3.52-.49,6.32-.87,9.44-1.3-.66-.81-.97-1.19-1.29-1.58,3.35-1.74,3.49-1.77,2.64-5.48-.48-2.1-.02-3.63,1.22-5.32.97-1.33,2.45-2.49,1.96-4.71-.37-1.64-1.33-1.11-2.32-1.28.15-.81.25-1.63.46-2.42,1.3-4.82,2.07-9.61.46-14.58-.5-1.55-.09-3.41-.09-5.79,1.37,2.65,2.78,4.59,3.4,6.76,1.25,4.4,3.84,7.78,6.96,10.94,1.93,1.95,3.03,4.24,1.01,7.07,3.99,3.02,7.91,5.99,12.4,9.38-2.1,1.41-3.75,2.79-5.63,3.71-3.62,1.78-3.84,2.23-1.43,5.61-1.34.38-2.62.75-3.89,1.11-.05,4.13,1.42,6.07,5.64,6.34,6.53.41,12.16-1.71,16.31-7.03.83-1.06,1.56-2.2,2.42-3.42,2.4,6.28.97,9.6-7.03,16.67,2.89,2.83,6.21.88,9.53.53.23,5.46-3.65,7.43-7.08,10.22,1.77.22,3.54.45,5.98.75-2.25,1.33-3.9,2.3-6.02,2.36-1.64.05-3.34.13-4.87.62-.84.27-1.9,1.43-1.92,2.21-.02.79.97,1.95,1.81,2.33,2.11.97,4.38,1.57,6.57,2.37,2.79,1.02,5.53,1.65,8.27-.24.45-.31,1.26-.08,1.87-.1,1.59,4.23-.14,7.24-3.18,9.72.48.6.68,1.09.99,1.19,4.82,1.43,9.63,2.86,14.49,4.12.78.2,1.78-.38,2.65-.67.97-.32,1.92-.73,2.88-1.1,2.06,5.48.42,9.09-5.75,13.39,1.55.61,3.33.93,4.64,1.9,1.75,1.3.12,2.98-.19,4.49,6.99,1.16,8.69-.16,8.61-6.63-1.14-.4-2.28-.81-3.44-1.19-1.09-.36-2.18-.7-3.52-1.13,3.43-4.42,6.12-9.11,5.82-15.37-1.23.71-2.23,1.28-3.5,2.01-.43-.55-.88-1.13-1.56-2-1.34.28-3.73,1.43-4.35.81-2.3-2.31-5.8.32-8.09-2.62,2.05-.9,4.05-1.57,5.82-2.62,1.85-1.1,3.48-2.58,5.19-3.89-3.71-5.05-3.67-6.1.13-11.39-.58-1.65-1.15-3.25-1.76-4.97-2.24-.96-5.44-.39-7.22-3.93,4.79.68,8.98.08,12.3-3.08.55-.52.28-1.91.43-3.28-1.84.96-3.12,1.62-4.75,2.47,2.26-4.65,2.82-9.23,2.97-13.79.15-4.63-.31-9.29-.53-14.61,2.55,3.81,3.68,7.57,4.75,11.35.56,1.98.83,4.09,1.64,5.96,1.39,3.2,3.16,6.15,7.35,6.18,1.58.01,2.66,1.01,2.78,2.54.14,1.86-.07,3.75-.14,6.28,1.44,3.34,4.98.53,7.52,1.45,1.15-1.39,2.28-2.74,3.75-4.5.62,3.72-1.81,6.02-2.44,9.07l3.41-.72c-1.38,3.99-5.42,4.3-8.02,7.12,6.98,2.62,13.35.94,19.69-1.72,2.58,3.94.36,7.02-1.12,10.61,1.65-.63,2.88-1.11,4.11-1.58.13.13.26.25.39.38-1.04,1.02-1.92,2.29-3.14,3.01-2.95,1.74-6.02,3.28-9.1,4.76-1.6.77-3.17,1.69-2.73,3.57.38,1.64,1.82,2.22,3.71,2.56,5.87,1.05,10.8-1.07,15.86-4.12-.27,6.16-5.45,9.09-7.59,14.16,3.57-1.55,7.14-3.09,11.14-4.82-.55.96-1.47,1.85-1.29,2.36,1.47,4.26-1.5,6.65-3.68,9.41-.5.64-.94,1.32-1.43,2.01q5.69,2.35,6.61,8.59c.02.14.06.27.05.41-.43,8.66,5.02,13.31,11.62,17.27,3.7,2.22,6.51,5.06,5.6,10.47-129.18,27.09-258.2,55.48-387.93,81.42.41-.33.81-.94,1.24-.96,2.88-.14,4.2-2.13,5.61-4.26,6.13-9.28,12.81-18.22,17.66-28.29.68-1.41,1.38-2.81,1.83-4.41-3.21,1.33-5.16,6.27-9.69,2.55-1.19,1.01-2.23,2.16-3.5,2.91-2.58,1.51-5.17,3.15-7.97,4.09-3.23,1.08-3.33.78-4.65-2.75-3.79,1.02-7.21.75-9.55-3.96,5.4-.13,9.75-2.36,13.96-4.75,4.22-2.4,7.19-6.2,9.93-10.26-4.14,1.34-6.91,4.9-11.13,6.76.69-3.15,1.93-5.63,4.04-7.68,4.83-4.7,9.63-9.43,14.5-14.09,2.41-2.31,4.38-4.87,5.72-9.1-4.39,3.63-6.91,8.14-12.12,9.89.35-1.56.65-2.91,1.12-5.01-4.06,2.25-7.78,4.07-11.24,6.29-2.85,1.83-3.8,2.25-7.38,1.23,1.72-1.67,3.35-3.24,5.53-5.36-6.38.35-12.27,4.3-18.13-.97,5.98-1.31,11.72-2.16,16.56-6-2.42-1.09-4.5-2.03-7.39-3.33,1.46-.95,2.21-1.72,3.1-1.96,2.39-.65,4.81-1.27,7.26-1.56,6.21-.74,10.5-4.47,14.34-8.93,1.79-2.08,3.58-4.18,5.14-6.44,1.06-1.52,1.72-3.32,2.5-4.88-2.27-1.78-3.43-1.18-4.77.64-1.83,2.48-4.09,4.65-6.44,7.26-.45-1.32-.66-1.93-.9-2.62-4.02,1.75-7.87,3.98-12.75,3.33.37-2.77,1.92-4.19,4.26-4.98,4.67-1.59,8.12-4.52,9.98-9.17.14-.36.11-.78.16-1.16-3.97-1.11-7.13,1.05-10.52,2.26-2.77.99-5.53,2.83-8.92.11,1.9-1.06,3.62-2.02,5.34-2.98-4.6-.79-9.5,1.43-13.54-3.65,1.67-.41,2.76-.76,3.89-.93,6.06-.9,11.78-2.69,16.93-6.11,3.06-2.03,5.57-4.44,6.18-8.58-3.78-.81-6.79,2.19-10.6,1.87-3.39-.28-6.93,1.26-10.82,2.08.28-1.12.46-1.83.69-2.74-1.62-.31-3.24-.62-5.65-1.07,3.8-1.13,6.79-1.79,9.6-2.9,4.41-1.75,8.27-4.33,10.85-8.5.94-1.52,1.52-2.94-.03-4.44-3.94,2.5-8.08,3.89-12.64,2.67-.16-.34-.32-.68-.48-1.02,1.49-1.22,2.97-2.44,4.74-3.9-2.67-1.54-6.95.23-7.71-4.34,2.63-1.01,6.17-.15,7.79-3.7-1.17-.35-2.31-.7-3.45-1.04-.04-.25-.07-.5-.11-.75,2.82-.6,5.76-.87,8.42-1.88,2.58-.99,5.73-1.74,6.83-5.76l-5.6,1.18c-1.72-2.05-.41-3.09.79-4.26,1.03-1.01,1.9-2.2,3.42-4l-9.28,1.97c-.06-.18-.13-.36-.19-.53.85-.55,1.7-1.1,2.69-1.74-.22-.77-.42-1.49-.67-2.38,3.24-1.72,4.29-4.6,4.82-8.1.53-3.55,1.17-6.95.06-10.51-.38-1.23-.03-2.69.49-4.16,1.39,3.57,3.17,7.05,4.09,10.74,1.32,5.31,4.45,7.92,10.44,8.11-1.14,1.54-1.98,2.69-2.92,3.96.72.35,1.43.7,2.15,1.06q-1.59,2.14-5.13,2.38c.11,1.15.22,2.3.36,3.84,2.25.22,4.37.42,6.57.63q2.14,4.76-2.64,9.44c4.13,3.65,9.15,4.27,13.76,1.84.86-.45,2.37-.86,2.89-.44.65.53.84,1.94.81,2.96-.1,2.99-1.26,4.97-4.53,8.24,4.8,3.41,9.04.62,13.79-.53-1.22,1.1-2.45,2.19-3.78,3.39.36.47.76.98,1.16,1.5-.17.16-.33.42-.53.47-4.48.95-8.82,2.6-13.6,1.78-1.4-.24-3.01.79-4.6,1.26,5.94,9.33,14.16,11.15,27.03,6.4-4.09,3.41-6.86,8.38-12.29,10.21,1.92,1.42,5.09,2.27,8.16,1.48,2.88-.75,5.6-2.11,8.38-3.21,1.23,3.21.72,4.2-3.7,6.63.84.28,1.36.45,2.05.68-.19.33-.29.77-.55.9-2.21,1.19-4.39,2.22-6.42,3.93-2.85,2.4-6.7,3.01-10.54,1.45.27,5.66,3.95,10.73,8.98,12.36,2.74.89,5.61,1.38,8.38,2.17,1.18.34,2.45.11,3.38,1.75.51.9,3.19.57,5.1.82-.47.88-1,1.88-1.53,2.89,8.03-3.11,12.94-9.15,16-16.94-1.21,1.58-2.31,3.25-3.66,4.7-1.39,1.5-2.93,2.89-4.56,4.13-1.33,1.02-1.76.69-4.4.34-1.96-.26-4.01.17-6.02.22-2.11.06-3.95-.6-5.93-2.27,3.74-1.9,8.61-.55,10.62-5.27-2.94.62-5.66,1.2-8.76,1.86.47-.99.68-1.46,1.04-2.21-1.02-.66-2.07-1.35-3.34-2.18,4.14-1.28,7.93-2.36,11.67-3.62,5.43-1.82,9.67-5.14,12.4-10.26,1.12-2.1,1.77-4.26,1.21-7.18-2.3,1.53-4.35,2.9-6.4,4.27-.15-.13-.3-.25-.45-.38.38-.72.76-1.44,1.43-2.7-4.43,1.06-8.23,4.05-13.22,1.67,3.17-1.61,6.98-1.09,8.36-5.23-2.4.1-4.83.69-6.99.17-2.21-.53-4.49-1.71-6.04-4.7,5.09.39,10.02,2.83,14.05-1.52-.16-.48-.37-1.08-.5-1.46,2.29-2.09,4.48-4.09,7.14-6.52-1.74-.14-2.68-.22-3.87-.32-1.39,3.09-4.57,3.87-7.4,5.09-.83.36-1.98-.02-3.38-.08,1.83-2.08,3.28-3.73,4.64-5.28-1.82-2.75-3.53-.25-5.45-.82-.83-2.45,1.19-4.07,1.98-5.99,5.08-.09,9.42-1.8,13.27-4.79,1.91-1.48,2.72-3.38,2.01-5.96-.45-.18-.93-.48-1.43-.53-2.3-.22-2.83-1.68-2.13-3.48.92-2.39,1.56-4.69.51-7.17,1.83-4.35.26-8.91.72-14.13,1.98,4.46,3.65,8.22,5.33,11.97.28.62.45,1.43.94,1.78,2.76,2.03,2.41,4.33.76,6.72,1.58.87,3.1,1.7,5.21,2.86-1.65.97-2.74,1.62-4.21,2.48,2.13.72,3.97,1.28,5.07,3.4.52,1,2.86,1.26,4.42,1.43,1.16.13,2.39-.43,3.8-.73.52,3.71-3.07,4.06-4.23,6.08-1.45,2.53-3.55,3.69-7.03,3.73,1.86,3.41,3.97,6.26,6.83,6.81,2.73.52,5.58,3.53,8.67.3.15.25.3.51.45.76-1.21,1.83-2.41,3.66-3.71,5.61.58.24,1.4.58,2.54,1.06-2.94,2.2-6.27,2.03-9.59,2.71-1.9,2.3-1.07,4.32.55,6.8,2.93,4.49,7.16,5.81,11.99,5.66,1.89-.06,3.74-1.29,5.98-2.12.04,4.08-3.63,4.84-5.25,7.28,1.07.17,2.07.33,3.94.62-2.57,1.67-4.45,2.89-6.54,4.25.6.62,1.2,1.22,1.83,1.87-2.84,2.15-5.35.45-8.27-.59.92,4.94,3.74,8.03,7.57,11.49-.2-1.49-.29-2.17-.43-3.22,1.9-.4,3.84-.81,5.9-1.25-.18-.86-.14-1.49-.43-1.86-1.38-1.8-.6-3.05.93-4.14,2.08-1.48,3.79-3.18,3.9-6.21-.72-.55-1.54-1.17-2.64-2.01,2.75-2.64,3.53-5.83,3.45-9.76-1.55.14-3.08.28-5.28.48,1.4-1.8,2.69-3.16,3.61-4.73.71-1.21,1.31-2.67,1.38-4.05.27-5,.29-10.01,1.01-15.05.68,4.51,1.36,9.01,2.05,13.51.14.95.31,1.9.46,2.85.46,2.95,1.88,5.09,4.92,5.95,1.17.33,2.27.88,3.4,1.33-.01.27-.03.54-.04.8Z"/>
  </g>
</svg>