<?xml version="1.0" encoding="UTF-8"?>
<svg id="Hintergrund" xmlns="http://www.w3.org/2000/svg" viewBox="0 0 1366 784">
  <defs>
    <style>
      .cls-1 {
        fill: #5c1715;
        stroke-width: 0px;
      }
    </style>
  </defs>
  <path class="cls-1" d="M1231.9,450.28c-12.01,3.01-17.01,8.02-30.02,9.02-13.01,1-44.03-27.06-56.04-31.07-12.01-4.01-29.02,22.05-40.07,30.25-11.05,8.2-108.03-2.19-118.04-.18s-103.08-13.03-138.1-20.04-73.6,28.77-129.64,18.75c-56.04-10.02-145-21-145-21,0,0-51.6-9.78-62.61-17.79-11.01-8.02-171.13-44.1-171.13-44.1,0,0-24.02-6.01-30.02,7.02-6,13.03-13.01,13.03-13.01,13.03,0,0-4-1-5-2s-11.01-4.01-16.01-6.01-3-8.02-4-9.02-16.01-2-16.01-2c-26.02,1-77.06-16.03-97.07-20.04s-48.04-20.04-69.05-27.06S0,313.05,0,313.05l-.02,470.95h1366l.49-351.21c-46.14-16.94-124.07,14.85-134.58,17.48Z"/>
  <g>
    <path class="cls-1" d="M254.15,168.85c-.28,7.24-.57,14.48-.86,22.08.95-.45,1.78-.83,2.6-1.22.22.15.44.3.66.45-.92,1.32-1.76,2.7-2.76,3.95q-3.79,4.76,2.06,6.3c-.82.79-1.53,1.47-2.31,2.23,2.24,2.15,4.36,1.97,6.72.47.96-.61,2.25-.69,3.39-1.02.27,1.54,1.16,3.32.68,4.56-.7,1.78-2.4,3.15-3.2,4.13.85.33,2.15.85,3.46,1.37-.9,1.2-1.55,2.86-2.74,3.49-2.38,1.27-5.06,1.97-7.57,2.89,2.35,4.38,10.45,6.16,19.08,3.84-1.75,6.3-4.89,10.85-12.71,10,1.44.83,2.88,1.66,4.32,2.49-.05.23-.1.46-.14.68-4.46-.81-8.91-1.61-13.9-2.52.42,3.2,2.36,4.8,4.74,5.43,5.98,1.6,12.06,2.85,18.11,4.22,1.3.29,2.63.49,4.78.87-6.47,2.26-9.69,9.05-17.05,7.32l.12,1.16c2.47.92,4.96,1.81,7.42,2.78,1.27.5,2.48,1.14,3.71,1.71-.86,1.14-1.67,2.32-2.59,3.41-.34.4-.91.59-2.06,1.3,2.61,1,4.59,1.76,7.05,2.7-6.58,1.67-12.53.64-18.59-1.12,2.59,2.63,4.68,5.79,9,5.69.78-.02,2.3,1.06,2.26,1.54-.13,1.76-.77,3.49-1.22,5.23l-1.18.76c3.26,1.32,6.56,2.56,9.78,3.98,1.7.75,3.28,1.79,4.91,2.69-1.07,1.24-2.13,2.49-3.2,3.73.06.26.11.51.17.77,3.62-1.61,7.23-3.22,10.85-4.83-.07-.29-.14-.58-.21-.86-1.99-.68-3.99-1.35-5.98-2.03-.21-.55-.43-1.11-.64-1.66,1.71-.63,3.43-1.25,5.14-1.88-.08-.37-.15-.74-.23-1.11l-11.18-.87c-.12-.45-.24-.9-.36-1.35,3.75-1.61,7.48-3.27,11.26-4.81,3.15-1.28,6.85-1.77,8.14-6.1-2.95-.25-5.65-.21-8.21-.79-1.43-.32-2.62-1.68-3.92-2.56,1.18-.85,2.27-1.89,3.56-2.49,1.51-.71,3.19-1.04,4.76-2.36-1.96-.53-3.99-.89-5.86-1.65-.91-.38-1.51-1.51-2.25-2.3.9-.49,1.75-1.17,2.71-1.44,4.01-1.13,8.06-2.14,12.77-3.36-1.39-.87-2.57-1.34-3.36-2.18-.88-.92-1.92-2.18-1.92-3.28,0-.91,1.31-2.41,2.26-2.61,4.5-.97,5.38-3.83,4.88-7.86-.17-1.34.24-2.78.51-4.15.73-3.65,1.47-7.3,2.32-10.92.34-1.48.96-2.89,1.99-4.24.44,4.93,4.07,9.13,2.23,14.35-1.1,3.11-1.46,6.47-2.27,9.69-.68,2.71.58,4.66,3.38,4.8,1.16.06,2.34-.06,3.5-.18,1.13-.11,2.25-.31,3.63.08-1.61,1.26-3.21,2.51-4.82,3.77,1.92,2.58,4.39,2.89,11.22,1.38-3.63,6.96-7.1,8.49-15.35,6.78.18,1.37,6.04,6.65,8.14,6.65,3.73,0,7.45-.55,11.05-.86-1.65,3.83-5.57,5.46-9.99,6.5-1.91.45-4.3-.14-4.98,3.08-.18.88-3.46,1.11-6.05,1.84,9.63,5.09,18.82,8.35,29.08,1.92.14.46.28.92.42,1.38-2.98,2.8-5.97,5.61-9.29,8.73,2.33.08,4.35.14,7.1.23-7.96,5.89-15.88,6.61-24.69,2.89,3.7,7.73,10.47,9.03,17.36,10.21,1.27.22,2.45.99,3.66,1.51-1.12,1.04-2.14,2.22-3.4,3.05-.7.47-1.78.36-3.12.58,2.81,1.87,4.87,4.33,8.43,3.21.59-.19,1.79.28,2.08.79.3.53.08,1.69-.35,2.23-1.67,2.12-3.33,4.36-6.69,3.13-1.03-.38-2.27-.18-3.64.27l4.36,2.58c-.07.25-.13.49-.2.74-4.71-.85-9.42-1.7-14.13-2.56-.11.21-.23.42-.34.62,1.54.81,3.03,1.76,4.64,2.4,3.8,1.52,7.68,2.85,11.5,4.33,4.11,1.59,5.78.38,5.59-4.13-.02-.58-.04-1.16-.06-1.78l-3.08-.56c4.54-2.56,4.6-6.66,5.51-10.54,1.47-6.24,3.38-12.38,5.17-18.54.17-.6.78-1.07,1.3-1.76.45.47,1.01.78,1.01,1.1.02,4.87.34,9.77-.19,14.58-.4,3.66-1.07,7.07.74,10.59.81,1.57.77,3.59,1.16,5.63.85-.14,1.69-.28,2.51-.42,1.02,2.36-2.9,5.56-7.59,6.32,3.12,6.03,5.42,12.67,12.46,15.93-1.34,1.35-2.48,2.5-3.82,3.85.83.61,1.6,1.17,2.68,1.96-4.12,1.66-7.13-.49-10.25-2.24-.19,6.13.09,6.37,16.54,14.07-.85.55-1.57,1.01-2.9,1.88,1.95.5,3.41.88,4.87,1.25.02.32.04.63.05.95-3.56.25-7.13.49-10.79.75,3.6,4.66,9.07,5.45,14.5,6.31.1.33.2.66.3,1-1.98,1.06-3.95,2.12-6,3.22.74.35,1.51.71,2.75,1.29-5.11,2.14-10.57-2.52-14.98,2.26,3.97,6.14,10.38,7.47,17.54,8.03-2.52,3.89-6.23,4.41-10.6,5.28,1.93.88,3.2,1.46,4.46,2.04l-.13,1.13c-3.45-.24-6.95-.18-10.33-.82-3.52-.67-6.9-2.01-10.68-3.16,4.82,6.89,12.62,5.53,19.67,7.81-4.53,3.91-10.52,1.14-15.17,5.06,2.88,1.73,5.7,3.42,9,5.39-6.6,1.14-12.28-1.03-18.63-3.57,1.91,2.2,3.33,3.82,5.4,6.2-2.19-.29-3.42-.4-4.62-.62-102.64-18.57-205.29-37.11-307.91-55.82-4.5-.82-8.8-2.97-13.05-4.81-1.49-.64-2.56-2.24-3.69-3.83,6.74.83,13.41,2.46,19.9-2.26-7.83-2.09-14.07-5.74-18.67-13.29,12.52,5.18,24.41,8.38,37.1,3.93-9.59-2.56-19.45-4.36-26.57-12.31.9.28,1.8.56,2.87.89-2.24-2.77-4.31-5.32-6.37-7.87.18-.12.35-.24.53-.36,5.02,1.87,10.04,3.73,15.06,5.6-2.11-6.49-10.93-6.67-11.25-14.56,2.41,1.12,4.59,2.13,7.54,3.5-1.3-1.41-2-2.18-2.7-2.94.08-.26.16-.51.24-.77l17.09,3.09c0-.21-.01-.43-.02-.64-4.27-3.31-8.54-6.61-12.81-9.92.23-.42.46-.84.69-1.26,6.19,4.45,12.97,5.79,20.53,4.52-3.16-2.05-6.09-3.95-9.02-5.85.11-.33.21-.67.32-1,6.19-.21,12.71,2.42,19.17-2.08-5.86-1.06-11.1-2.01-16.33-2.96,0-.25.01-.51.01-.76.94-.28,1.88-.55,2.76-.81-.81-1.75-1.61-3.49-2.41-5.23.16-.26.32-.52.47-.77,4.55,4.28,9.07,2.72,13.61.73-3.36-1.15-6.62-2.26-9.88-3.38.09-.28.17-.57.26-.85,4.55-1.11,9.1-2.22,13.66-3.33.12-.3.25-.61.37-.91-.3-.16-.66-.25-.89-.48-1.7-1.72-5.39.31-6.16-4.02-.34-1.93-4.19-3.23-6.96-5.18,5.19-.51,9.64-.95,14.1-1.39.01-.48.02-.97.03-1.45-4.16-1.09-8.31-2.19-12.47-3.28-.02-.31-.03-.61-.05-.92,1.56-.25,3.13-.49,5.05-.79-.69-3.06.64-3.35,3.44-2.82,2.29.43,4.79-.27,7.53-.5-2.32-5.87-8.47-5.45-12.48-8.8.97-.43,1.53-.68,2.29-1.02-.88-.96-1.71-1.87-2.55-2.78.07-.25.14-.49.21-.74,4.59.83,9.18,1.66,13.77,2.49.1-.27.2-.55.3-.82-1.51-1.22-3.03-2.44-4.54-3.65.1-.2.2-.39.3-.59.82.09,1.64.18,1.43.16,2.11-1.62,3.7-2.61,4.98-3.91.8-.81,1.55-2.07,1.55-3.13,0-1.19-1.01-2.35-1.32-3.59-.35-1.38-.4-2.84-.59-4.26,1.41,0,2.82,0,4.6,0,1.93-4.6,4.08-9.71,6.19-14.74,3.08,2.4,2.58,9.96-1.32,16.31,2.46.89,4.92,1.79,7.57,2.74-2.5,1.89-4.98,3.75-7.77,5.86,1.3.64,2.25,1.27,3.29,1.58,3.69,1.12,4.12,2.45,1.66,5.58-.57.72-1.23,1.37-1.67,3.11,2.11-.34,4.23-.65,6.33-1.04,1.16-.22,2.29-.58,3.43-.88-.04,1.23-.04,2.46-.15,3.69-.05.55-.32,1.08-.61,1.98,1.48-.29,2.64-.51,3.8-.74.28.44.55.88.83,1.32-1.13.45-2.28.84-3.37,1.37-2.23,1.07-5.24.82-6.08,4.31-.2.84-2.82,1.1-4.42,2.51,2.75.08,5.51.16,9.12.26-.86,1.61-1.64,3.04-2.29,4.27-.18,1.72-.36,3.39-.61,5.7,3.67-1.05,7.45-2.13,11.24-3.22-.01-.31-.02-.62-.04-.93-1.28-.7-2.71-1.22-3.79-2.15-.87-.75-1.31-1.99-1.95-3.01,1.03-.27,2.05-.62,3.09-.78.65-.1,1.34.11,2.61.24-1.04-1.28-2-2.04-2.37-3.02-.48-1.31-1.11-3.18-.54-4.1.55-.89,2.67-1.44,3.88-1.17,3.7.85,6.84.19,10.04-2.3-2.94-4.16-11.72-3.34-9.62-11.41,3.41.39,6.65.76,10.68,1.22-3.19-5.35-7.39-6.46-12.74-6.88,1.25-.92,1.76-1.3,2.24-1.65-1.84-1.03-3.63-2.04-5.43-3.05.07-.3.14-.61.2-.91,5.29.99,10.59,4.11,15.95.45-5.33-.79-10.77-1.19-14.58-5.89,3.75-.2,7.28-.38,10.8-.57.06-.43.11-.85.17-1.28-1.17-.89-2.45-1.68-3.47-2.72-.67-.68-.96-1.72-1.43-2.59.93-.18,1.86-.53,2.78-.52,3.7.03,7.4.17,11.1.27.14-.34.28-.69.42-1.03-3.17-2.27-6.35-4.53-9.68-6.91,3.78-1.09,8.15.36,12.41-3.34-3.12-.84-5.35-1.43-8.74-2.34,1.41-.44,2.22-.7,3.2-1.01-.63-.72-1.12-1.28-1.97-2.25,4.16.4,7.95.59,6.39-4.5,1.06-.92,2.31-1.5,2.69-2.43,1.78-4.4,3.33-8.9,5.18-14-.07,2.08-.05,3.7-.21,5.29-.16,1.63-.27,3.32-.8,4.85-1.48,4.29-.58,8.07,1.77,11.8.76,1.2,1.54,3.46.98,4.17-.92,1.17-2.94,1.47-4.96,2.35-.1,1.9,1.21,3.04,3.75,3.01.35,0,.74-.11,1.05,0,1.57.59,3.13,1.23,4.69,1.85-.93,1.32-1.9,2.62-2.79,3.98-.5.77-.88,1.62-1.61,3-1-.12-2.66-.33-4.74-.59,1.3,3.52,3.27,5.94,6.48,7.11,2.93,1.06,3.36,2.49,1.11,4.76-.71.71-1.59,1.25-2.76,2.15,2.03.9,3.69,1.64,5.73,2.55-5.67,1.66-9.45-1.92-14.57-4.81.58,1.87.61,3.2,1.13,3.44,3.37,1.53,3.76,4.34,3.44,7.82,1.37-.62,2.49-1.12,3.93-1.77-.22,2.85-2.23,5.55,0,8.19-2.13,2.97-4.45,6.2-7.55,10.53,4.62-.18,8.31-.32,12.06-.46.07-1.32.14-2.43.2-3.55,3.77.4,7.35.78,11.34,1.2-.65-1.72-1.3-2.86-1.45-4.06-.11-.83.23-2.36.75-2.55,6.24-2.3,6-8.37,7.88-13.2.29-.75.41-1.56.67-2.33.06-.16.37-.24.57-.36.2,6.35.41,12.72.61,18.96,5.76,1.21,7.82,2.93,7.41,6.14,1.19-.15,2.33-.38,3.47-.4.91-.02,2.03-.08,2.69.39,4.04,2.87,4,2.92,8.46.25l-5.47-.99c-1.07-3.13-1.89-5.55-2.87-8.42,3.47.16,6.32.3,10.02.47-1.18-1.04-1.97-1.56-2.53-2.27-.67-.84-1.82-2.3-1.57-2.67.62-.91,1.87-1.68,2.97-1.87,1.31-.23,2.73.21,4.25.38-2.24-2.79-4.37-5.44-6.5-8.08.31-.25.62-.5.93-.75.7.69,1.41,1.39,2.46,2.42.25-1.04.4-1.7.61-2.55,1.11.3,2.27.62,2.56.7,1.41-1.87,2.76-3.14,3.46-4.7,1.94-4.34,3.61-8.8,5.39-13.21.12-.31.32-.59.96-1.73.04,2.65.41,4.54.02,6.24-.68,2.95-1.51,5.72,2.41,7.67-1.61,1.23-2.67,2.05-4.14,3.17,1.63.66,3.04,1.23,4.99,2.01-1.47,1.23-2.73,2.27-4.22,3.52,1.57.66,3.07,1.22,4.5,1.92.72.35,1.32.95,1.97,1.44-.59.65-1.06,1.62-1.79,1.9-1.68.65-3.49.96-5.25,1.41.01.33.03.65.04.98,4.41.28,8.82.56,12.89.82-1.33,1.85-2.91,4.12-4.59,6.32-.29.38-.98.57-1.52.65-2.59.4-5.19.73-7.79,1.08-.07.32-.14.64-.21.96,1.41.35,2.83.66,4.23,1.07.8.23,1.55.61,2.32.92-.45.76-.73,1.79-1.4,2.23-2.24,1.45-4.62,2.67-7.1,4.08,3.47,5.12,9.32,4.15,14.49,5.69-1.07,1.63-1.91,2.91-2.75,4.19.26.47.53.94.79,1.41-3.84.19-7.69.37-11.75.57,2,2.58,4.14,4.26,7.48,2.92,2.39-.96,4.88-1.74,7.12-2.96,3.73-2.03,4.04-5.99.58-8.36-4.08-2.79-5.85-6.35-5.08-11.42,3.53.1,6.03,4.99,9.75,2.07-1.35-2.19-2.65-4.3-3.87-6.28,2.55-.87,4.57-1.55,7.11-2.41-3.45-4.01-3.77-7.7.2-11.2.19.38.46.91.85,1.71,5.74-4.26,2.38-12.65,8.04-17.11-.19,4.03-.38,7.9-.57,11.77-.23,4.83-.04,9.58,2.94,13.71.51.71,1.23,1.27,2.26,2.32-1.6.83-3.14,1.63-4.81,2.49,2.33,2.89,5.32,2.29,8.33,1.84,2.69-.4,5.47-.37,8.08-1.04,2.9-.74,5.65-2.07,8.47-3.14-.13-.38-.26-.75-.39-1.13-2.86.06-5.72.32-8.56.13-2.72-.18-5.66-.26-7.63-3.33,3.73-1.24,7.3-2.43,11.4-3.79-2.91-1.49-5.17-2.79-7.53-3.82-2.43-1.06-4.68-2.12-4.83-5.74,2.51.81,4.75,1.53,7.88,2.54-1.79-1.91-2.93-3.12-4.06-4.34,5.88.88,11.49,4.56,17.27-.85-2.29-3.17-3.75-6.78-7.91-8.39-2.1-.81-3.75-2.78-5.6-4.22.17-.29.33-.58.5-.88,1.09.01,2.17.02,4.5.05-1.48-.99-2.32-1.56-3.76-2.53,4.71.29,8.18.5,10.88.67,3.22-10.69,6.17-20.52,9.12-30.34.23.04.46.08.69.13ZM259.76,296.65c6.6,10.84,20.82,13.48,25.67,4.64-8.62-1.56-17.37-3.14-25.67-4.64ZM326.61,324.48c-2.73-4.11-6.07-2.95-9.88-2.67,3.03,2.56,5.49,4.87,8.2,6.82,1.47,1.05,3.33,1.68,5.11,2.12.74.18,1.72-.63,2.59-.99-.69-.53-1.3-1.27-2.08-1.56-2.61-.98-5.28-1.81-7.93-2.7.09-.33.18-.67.28-1,1.01,0,2.01-.01,3.73-.02ZM128.32,256.25c-1.91,1.58-3.59,2.96-5.78,4.77,5.76.99,3.2,4.96,3.15,8.31,4.68-5.06,5.25-7.88,2.63-13.08ZM161.28,262.98c3.94-1.43,7.64-2.09,7.04-6.9q-11.05-4.29-13.66-2.69c3.47.87,6.14,1.73,8.88,2.15,2.09.33,2.41,1.37,1.53,2.83-.88,1.46-2.17,2.67-3.8,4.61ZM254.29,308.65c-.21.45-.41.91-.62,1.36.74.92,1.3,2.29,2.26,2.68,2.12.87,4.44,1.25,6.52,1.79q-.24-3.29,7.23-3.05c-5.63-1.02-10.51-1.9-15.39-2.78ZM227.22,246.6c-2.36-.66-3.76-1.17-5.21-1.4-.79-.12-1.85,0-2.46.45-1.9,1.42-3.65,3.05-5.75,4.85,5.82-.23,10.76-2.57,15.78-5.51-1.25-.33-2.5-.67-4.51-1.21.81,1.06,1.13,1.48,2.15,2.82ZM309.03,356.67c3.82-.5,7.08-.92,10.33-1.35-.02-.25-.05-.5-.07-.74-3.11-.77-6.22-1.54-9.46-2.33l-.8,4.43ZM282.9,343.25c1.04-2.12,1.82-3.7,2.95-5.99-2.6.77-4.4,1.3-6.66,1.97,1.31,1.42,2.3,2.49,3.71,4.03ZM312.4,331.02c-.16.31-.32.63-.48.94,1.57,1.06,3.1,2.2,4.74,3.14.42.24,1.19-.12,1.8-.2-.25-.64-.33-1.63-.78-1.85-1.69-.82-3.51-1.38-5.27-2.03ZM228.19,254.39c-4.06-1.66-4.74-1.33-5.09,2.49,1.74-.85,3.22-1.58,5.09-2.49Z"/>
    <path class="cls-1" d="M1366,285.68c-.11-.27-.28-.65-.54-1.29-.37,2.63-.97,4.45-.79,6.19.32,3.01.79,5.86-3.33,7.31,1.45,1.42,2.4,2.36,3.72,3.65-1.7.45-3.17.84-5.2,1.38,1.31,1.4,2.43,2.59,3.76,4.02-1.64.46-3.19.83-4.7,1.35-.76.26-1.43.78-2.14,1.19.5.72.85,1.74,1.54,2.11,1.59.85,3.34,1.38,5.03,2.04-.05.32-.11.65-.16.97-4.41-.26-8.82-.53-12.89-.77,1.09,2,2.38,4.45,3.78,6.84.24.42.9.68,1.43.83,2.52.71,5.06,1.36,7.6,2.03.03.33.06.65.09.98-1.44.17-2.89.31-4.33.54-.82.13-1.61.42-2.42.63.36.81.5,1.87,1.11,2.38,2.04,1.71,4.25,3.22,6.55,4.92-4.07,4.66-9.76,2.97-15.08,3.86.86,1.75,1.54,3.12,2.22,4.49-.32.44-.64.87-.96,1.31,3.79.66,7.58,1.32,11.59,2.02-2.3,2.32-4.63,3.72-7.78,1.98-2.25-1.25-4.62-2.33-6.7-3.82-3.45-2.48-3.28-6.44.45-8.36,4.39-2.27,6.59-5.58,6.44-10.71-3.51-.34-6.59,4.21-9.93.85,1.61-2,3.16-3.94,4.61-5.75-2.42-1.17-4.34-2.1-6.76-3.27,3.92-3.56,4.69-7.17,1.18-11.14-.24.35-.56.85-1.06,1.59-5.18-4.94-.81-12.85-5.87-17.97-.3,4.03-.59,7.89-.89,11.75-.36,4.82-1.14,9.51-4.61,13.24-.6.64-1.37,1.11-2.53,2.03,1.48,1.02,2.91,2,4.46,3.07-2.66,2.58-5.56,1.62-8.5.8-2.62-.73-5.38-1.04-7.89-2.02-2.79-1.1-5.36-2.75-8.02-4.16.18-.36.35-.71.53-1.07,2.83.41,5.64,1.02,8.48,1.19,2.72.16,5.65.44,7.98-2.36-3.55-1.69-6.94-3.31-10.84-5.17,3.07-1.12,5.47-2.13,7.95-2.86,2.54-.75,4.91-1.53,5.5-5.1-2.59.49-4.91.93-8.13,1.54,2.01-1.67,3.29-2.74,4.57-3.8-5.95.15-11.96,3.11-17.03-2.97,2.66-2.86,4.55-6.27,8.88-7.35,2.18-.55,4.06-2.29,6.07-3.5-.13-.31-.26-.62-.39-.93-1.08-.12-2.16-.24-4.47-.5,1.59-.8,2.49-1.26,4.04-2.04-4.71-.29-8.18-.51-10.88-.68-1.88-11.01-3.6-21.12-5.32-31.23l-.7.04c-.61,7.22-1.22,14.44-1.86,22.02-.89-.56-1.66-1.04-2.43-1.53-.24.12-.48.24-.71.36.75,1.42,1.42,2.89,2.25,4.26,3.18,5.19,3.2,5.18-2.82,6,.72.89,1.33,1.65,2.02,2.5-2.48,1.86-4.57,1.41-6.73-.37-.88-.72-2.15-.97-3.24-1.43-.46,1.49-1.56,3.15-1.23,4.44.47,1.85,1.99,3.43,2.67,4.49-.88.23-2.24.58-3.6.93.74,1.3,1.18,3.03,2.29,3.8,2.21,1.55,4.78,2.58,7.16,3.8-2.87,4.06-11.13,4.82-19.41,1.45.96,6.46,3.52,11.37,11.39,11.49-1.53.64-3.06,1.29-4.59,1.93.02.23.04.46.06.7,4.52-.25,9.04-.5,14.11-.78-.81,3.12-2.94,4.47-5.37,4.81-6.14.85-12.32,1.34-18.49,1.95-1.33.13-2.67.16-4.85.28,6.14,3.04,8.5,10.18,16.02,9.37-.09.38-.17.76-.26,1.14-2.57.61-5.15,1.19-7.7,1.85-1.32.34-2.6.82-3.9,1.24.71,1.24,1.37,2.51,2.15,3.71.28.44.83.7,1.88,1.54-2.71.67-4.78,1.18-7.33,1.81,6.32,2.47,12.36,2.18,18.59,1.18-2.9,2.29-5.35,5.17-9.64,4.54-.78-.11-2.41.77-2.43,1.25-.09,1.77.34,3.56.57,5.34.36.3.72.6,1.08.9-3.4.9-6.82,1.74-10.19,2.74-1.78.53-3.47,1.37-5.21,2.07.91,1.37,1.81,2.73,2.72,4.1-.09.25-.17.49-.26.74-3.39-2.04-6.78-4.09-10.17-6.13.1-.28.21-.55.31-.83,2.06-.42,4.12-.85,6.18-1.27.28-.52.56-1.05.84-1.57-1.62-.83-3.25-1.67-4.87-2.5.12-.36.24-.72.36-1.08,3.73.17,7.47.35,11.2.52.17-.43.35-.87.52-1.3-3.53-2.06-7.03-4.17-10.59-6.16-2.96-1.66-6.58-2.6-7.33-7.06,2.96.12,5.63.49,8.25.23,1.46-.14,2.81-1.34,4.2-2.06-1.07-.99-2.02-2.15-3.23-2.91-1.41-.89-3.04-1.42-4.43-2.93,2.01-.28,4.07-.39,6.02-.92.95-.26,1.69-1.31,2.52-2.01-.83-.6-1.59-1.38-2.51-1.77-3.84-1.62-7.73-3.11-12.25-4.91,1.49-.69,2.71-1.01,3.6-1.74.98-.81,2.18-1.92,2.31-3.02.11-.9-1-2.55-1.92-2.87-4.35-1.52-4.87-4.47-3.87-8.4.33-1.31.1-2.79,0-4.18-.27-3.71-.56-7.42-.96-11.12-.16-1.51-.6-2.98-1.45-4.45-1.04,4.84-5.16,8.56-3.97,13.97.71,3.22.65,6.6,1.06,9.9.34,2.78-1.15,4.55-3.95,4.35-1.16-.08-2.31-.35-3.46-.61-1.11-.25-2.19-.58-3.61-.36,1.44,1.45,2.88,2.89,4.32,4.34-2.23,2.33-4.71,2.33-11.3-.01,2.75,7.35,6,9.3,14.39,8.62-.35,1.34-6.81,5.85-8.9,5.6-3.7-.45-7.33-1.46-10.86-2.21,1.17,4,4.86,6.1,9.11,7.68,1.84.68,4.29.39,4.56,3.67.07.89,3.3,1.52,5.78,2.57-10.19,3.86-19.7,5.96-29.1-1.68-.2.44-.39.88-.59,1.32,2.62,3.15,5.23,6.3,8.15,9.8-2.32-.21-4.34-.39-7.07-.64,7.18,6.83,14.95,8.52,24.14,5.91-4.62,7.21-11.5,7.67-18.48,7.99-1.29.06-2.55.68-3.82,1.05.98,1.17,1.85,2.46,2.99,3.45.64.55,1.72.57,3.02.96-3.02,1.51-5.36,3.7-8.76,2.15-.56-.26-1.81.05-2.16.53-.36.49-.28,1.67.08,2.26,1.4,2.31,2.76,4.74,6.25,3.93,1.07-.25,2.28.1,3.58.72-1.55.67-3.1,1.34-4.65,2.02.04.25.07.51.11.76,4.78-.27,9.56-.53,14.34-.8.09.22.18.44.26.66-1.63.61-3.23,1.37-4.9,1.81-3.96,1.04-7.97,1.88-11.94,2.88-4.27,1.07-5.78-.33-5.04-4.79.1-.57.18-1.15.27-1.76.84-.05,1.59-.09,3.12-.17-4.2-3.1-3.75-7.18-4.18-11.14-.69-6.37-1.83-12.7-2.85-19.03-.1-.61-.64-1.16-1.08-1.9-.5.41-1.1.65-1.14.97-.62,4.83-1.54,9.66-1.61,14.5-.05,3.69.19,7.15-2.04,10.42-1,1.46-1.21,3.46-1.84,5.45-.82-.24-1.64-.49-2.44-.73-1.3,2.21,2.2,5.87,6.76,7.2-3.83,5.6-6.94,11.91-14.32,14.27,1.17,1.51,2.15,2.78,3.31,4.29-.9.5-1.73.96-2.9,1.61,3.89,2.16,7.14.4,10.45-.96-.57,6.11-.87,6.31-18.14,11.93.78.65,1.43,1.2,2.65,2.22-2,.26-3.49.45-4.98.64l-.17.93c3.51.68,7.01,1.37,10.61,2.07-4.14,4.18-9.67,4.29-15.17,4.47-.14.32-.28.63-.42.95,1.83,1.3,3.66,2.59,5.56,3.94-.78.25-1.59.52-2.89.94,4.81,2.75,10.8-1.2,14.59,4.09-4.69,5.6-11.22,6.14-18.39,5.81,2.03,4.17,5.64,5.15,9.87,6.55-2.02.64-3.35,1.06-4.68,1.48,0,.38,0,.76-.01,1.14,3.45.18,6.92.68,10.35.46,3.57-.23,7.1-1.14,10.99-1.82-5.63,6.24-13.21,3.94-20.48,5.32,4.02,4.44,10.29,2.43,14.43,6.89-3.07,1.36-6.08,2.69-9.59,4.24,6.41,1.95,12.31.49,18.93-1.24-2.17,1.94-3.77,3.38-6.12,5.48,2.21-.02,3.44.02,4.67-.04,55.04-3.05,110.08-6.09,165.12-9.16v-172.53ZM1209.53,397.25c-.75.09-1.63-.83-2.44-1.3.75-.44,1.45-1.1,2.26-1.3,2.71-.65,5.47-1.14,8.2-1.7l-.15-1.03c-1-.13-1.99-.26-3.7-.48,3.22-3.74,6.39-2.18,10.13-1.43-3.33,2.17-6.04,4.16-8.97,5.76-1.58.87-3.51,1.26-5.33,1.47ZM1217.09,422.96c.05-.24.11-.49.16-.73,3.18-.38,6.37-.76,9.68-1.15.08,1.5.14,2.52.25,4.49-3.73-.97-6.91-1.79-10.09-2.61ZM1222.27,403.22c-.45.19-1.16-.26-1.76-.42.32-.6.52-1.58,1-1.74,1.78-.6,3.65-.93,5.48-1.37.12.33.24.66.36.99-1.69.86-3.35,1.8-5.09,2.54ZM1254.76,415.48c-.77-2.24-1.35-3.9-2.19-6.31,2.48,1.08,4.2,1.83,6.37,2.77-1.48,1.25-2.58,2.19-4.18,3.54ZM1257.41,373.52c8.74-.48,17.62-.98,26.04-1.44-7.88,9.95-22.32,10.81-26.04,1.44ZM1285.29,388.47c-2.21.6-4.56.69-6.7.98q.64-3.24-6.8-3.92c5.71-.32,10.66-.59,15.61-.87l.45,1.43c-.85.83-1.57,2.11-2.57,2.38ZM1324.39,323.89c-.88.9-1.27,1.29-2.3,2.35-.78-.55-1.55-1.12-2.32-1.71,1.28-.18,2.57-.36,4.63-.64ZM1324.73,337.14c-1.62-1.06-3.01-1.96-4.75-3.1,4.24-1.15,4.86-.73,4.75,3.1ZM1322.27,326.37c2.2-.34,3.59-.65,4.97-.69.8-.02,1.84.22,2.39.75,1.71,1.64,3.25,3.47,5.11,5.52-4.71-.77-8.66-2.9-12.47-5.58Z"/>
  </g>
</svg>