<?xml version="1.0" encoding="UTF-8"?>
<svg xmlns="http://www.w3.org/2000/svg" xmlns:xlink="http://www.w3.org/1999/xlink" viewBox="0 0 1366 784">
  <defs>
    <style>
      .cls-1 {
        fill: #ff0;
      }

      .cls-1, .cls-2, .cls-3, .cls-4, .cls-5 {
        stroke-width: 0px;
      }

      .cls-6 {
        clip-path: url(#clippath-2);
      }

      .cls-2 {
        fill: none;
      }

      .cls-3 {
        fill: #210002;
      }

      .cls-7 {
        clip-path: url(#clippath-1);
      }

      .cls-4 {
        fill: #b82428;
      }

      .cls-5 {
        fill: #fff;
      }
    </style>
    <clipPath id="clippath-1">
      <rect class="cls-2" x="0" width="1366" height="784"/>
    </clipPath>
    <clipPath id="clippath-2">
      <path class="cls-2" d="M414.06,491.32c-.49-.05-.93-.39-1.09-.9-.21-.68.17-1.4.84-1.61.24-.08,20.26-6.6,45.92-34.07.48-.52,1.3-.55,1.82-.06.52.48.55,1.3.06,1.82-13.67,14.63-25.69,23.29-33.36,27.97-8.37,5.11-13.46,6.73-13.67,6.79-.17.05-.35.07-.52.05Z"/>
    </clipPath>
  </defs>
  <g id="Hintergrund">
    <g class="cls-7">
      <path class="cls-3" d="M1368,562.52c-6,2-27.02,9.02-42.03,7.02-15.01-2-40.03-11.02-48.04-11.02s-32.02,4.01-40.03,10.02c-8.01,6.01-27.02,2-27.02,2,0,0-3,0-29.02,8.02-26.02,8.02-41.03,28.06-45.03,33.07-4,5.01-30.02,8.02-30.02,8.02,0,0-18.01,4.01-25.02,9.02-7.01,5.01-37.72,10.18-37.72,10.18,0,0-64.35-14.19-87.37-5.17-23.02,9.02-45.03-3.01-86.06,3.01-41.03,6.01-40.03-2-49.04-6.01-9.01-4.01-26.02-2-26.02-2,0,0-13.01,1-34.02-14.03-21.02-15.03-52.04-15.03-57.04-16.03s-14.01,3.01-19.08,3.01-9.94-5.01-9.94-5.01c0,0-8.01-3.01-11.01,1s-29.02,4.01-29.02,4.01c0,0-26.02-11.02-36.03-7.02s-22.02-2-24.95-3.98-3.07-1.03-19.09-.03c-16.01,1-47.03-25.05-49.04-28.06s-15.01-11.02-17.01-11.02-15.01-4.01-21.02-8.02c-6-4.01-41.03-4.01-44.03-4.01s-23.02-4.01-26.02-5.01-12.01-1-13.01-2-6-5.01-12.01-6.01c-6-1-9.01,1-13.01,1s-4-3.01-5-4.01-5-3.01-11.01-3.01-5,4.01-14.01,6.01c-9.01,2-42.03-7.02-42.03-7.02,0,0-32.02-7.02-44.03,15.03-12.01,22.05-42.03,17.04-42.03,17.04,0,0-39.03-25.05-38.03-33.07s-7.01-14.03-7.01-14.03c0,0-9.01-4.01-18.01-18.04-9.01-14.03-22.02-9.02-21.02-15.03,1-6.01-9.01-11.02-10.01-13.03s-15.01-5.01-20.01-5.01-34.5-11.02-34.5-11.02c0,0-13.54,3.01-15.54,0s-12.83-5.21-12.83-5.21c-18.84,3.81-18.19,0-18.19,0l-7.01,2.12v344.83h1391.02v-210.46s-17.01-13.03-23.02-11.02Z"/>
    </g>
    <path class="cls-3" d="M1029.48,563.67l-1.19-33.28-37.88-3.71.65-36.36-29.16,1.97s.36,13.2.91,31.69l-22.55-1.7-53.53,16.15,47.19,22.57,30.04.52c1.15,35.98,2.5,73.4,3.27,77.85l20.91,13.54,1.63-90.54,39.72,1.31Z"/>
    <g>
      <path class="cls-5" d="M944.6,543.4l-.27,4.07-2.23-.15.85-12.65.07-1.02,1-.03c.62-.01,1.21.04,1.79.16.57.12,1.06.3,1.47.54.44.27.8.55,1.09.83.33.32.58.67.77,1.07.36.67.53,1.39.52,2.18-.04.77-.23,1.5-.57,2.19-.38.74-.96,1.37-1.73,1.89-.77.51-1.69.82-2.75.92ZM945.1,535.92l-.35,5.21c1.14-.2,1.92-.73,2.35-1.59.2-.33.3-.72.3-1.16,0-.4-.08-.77-.25-1.12-.37-.72-1.05-1.17-2.06-1.34Z"/>
      <path class="cls-5" d="M950.82,533.78l7.46.5-.15,2.22-5.27-.35-.43,5.24,3.69.31-.19,2.23-3.67-.31-.39,4.64-2.21-.19,1.08-13.2.07-1.1Z"/>
      <path class="cls-5" d="M960.61,545.63l-.88,2.95-2.14-.62,3.69-12.3.26-.84,3.49.23.12.89,2.04,12.66-2.21.31-.46-3.02-3.91-.26ZM963.05,537.04l-1.77,6.4,2.91.19-1.14-6.59Z"/>
      <path class="cls-5" d="M969,548.96l-1.08-.09.05-1.08.65-11.28.07-1.1,1.1.05c1.59.08,2.84.44,3.78,1.07.96.65,1.62,1.49,1.98,2.52.33.86.43,1.81.29,2.83-.1.93-.36,1.85-.78,2.75-.62,1.31-1.49,2.38-2.6,3.21-1.11.83-2.27,1.21-3.46,1.11ZM970.79,537.82l-.5,8.75c.52-.19,1.04-.55,1.56-1.08.46-.5.86-1.11,1.2-1.8.31-.7.51-1.38.6-2.04.06-.68,0-1.28-.18-1.82-.4-1.07-1.29-1.74-2.67-2Z"/>
      <path class="cls-5" d="M978.62,535.77l-.94,14.05-2.23-.15.94-14.05,2.23.15Z"/>
      <path class="cls-5" d="M986.41,539.3l-.81,10.89-2.21-.15.91-12.45.07-1.12,3.89.26.14.89.85,5.55,1.48-5.39.22-.85.88.02,1.84.04,1.16.02-.06,1.16-.71,12.48-2.24-.13.6-10.56-1.43,5.28-.26.88-.9-.06-1.54-.12-.9-.06-.14-.87-.86-5.71Z"/>
      <path class="cls-5" d="M997.3,546.96l-.4,4.18-2.21-.21,1.32-14.04,2.23.23-.73,7.63,3.29.28.42-7.73,2.22.11-.72,14.06-2.24-.11.21-4.11-3.39-.29Z"/>
    </g>
  </g>
  <g id="Clipping_Mask" data-name="Clipping Mask">
    <path class="cls-3" d="M1224.29,577.03c2.2-.16,4.4-.3,7.47-.51-.09-8.12-.18-15.86-.27-23.84-6.44,1.73-12.41,3.36-18.4,4.93-1.16.31-2.39.37-3.57.63-3.36.72-5.54-.33-5.88-4.07-5.88.4-11.51.8-17.14,1.17-8.15.54-8.81-.1-8.34-8.24-8.88,1.17-17.52,4.99-26.95,2.59-.13-1.93-.25-3.6-.35-5.09-8.95,1.96-17.59,3.91-26.25,5.71-2.36.49-4.81.75-7.23.77-3.67.03-4.71-1.67-3.13-5.05.92-1.97,2.19-3.78,3.78-6.47-5.54-.61-10.44-1.11-15.33-1.7-7.62-.93-14.41-3.92-20.42-8.65-1.04-.82-1.71-2.11-2.65-3.31,2.35-2.83,5.22-2.41,7.97-2.13,6.78.69,13.19-.7,19.86-2.95-.99-5.82,2.76-6.94,7.21-8.15,13.42-3.63,23.2-11.76,29.17-24.92-3.35-.44-5.09,1.98-7.37,2.97-2.4,1.03-4.6,2.63-7.08,3.34-4.29,1.22-5.65.37-8.27-4.5-2.04,1.13-4.15,2.14-6.09,3.41-3.55,2.3-7.59,3.8-11.51,2.73-4.19-1.15-8.06-3.59-11.89-5.78-.96-.55-1.22-2.33-1.93-3.83,1.04-.49,1.76-1.16,2.38-1.07,5.47.77,9.79-1.63,13.98-4.7,4.88-3.59,9.92-6.96,14.79-10.57,1.36-1.01,2.34-2.51,4.07-4.43-6.43-1.61-14.31,1.77-16.91-7.42,17.26-6.59,28.84-20.21,43.96-31.55-6.75-.91-11.66.43-16,3.28-3.35,2.2-6.41,2.97-10.22,1.37-1.8-.76-4.01-.46-5.94-1-1.71-.48-3.51-1.16-4.86-2.26-2.96-2.39-2.48-5.44,1.25-6.21,9.29-1.9,14.57-9.04,20.75-15.03.79-.77,1.26-2.09,1.43-3.23,1.13-7.44,4.39-13.39,11.31-16.97.76-.4,1.26-1.32,2.48-2.65-5.89.04-10.69-.38-15.24,2.8-4.03,2.81-8.87,3.95-13.88,3.37-1.57-.18-3.25-.53-4.6-1.29-2.55-1.45-2.7-3.96-.61-5.99.43-.42.97-.73,1.49-1.03,6.56-3.84,11.27-9.58,16.05-15.32,1.9-2.28,4.64-3.86,7.01-5.75,1.18-.94,2.36-1.88,3.1-3.63-1.7.44-3.4.92-5.12,1.31-3.3.75-6.43.09-9.4-1.4-2.68-1.34-2.9-3.85-.4-5.53,2.68-1.8,5.45-3.46,8.26-5.05,3.96-2.24,6.36-5.45,6.98-10.69-3.91-.01-7.63-.14-11.35,0-2.92.1-5.3-.31-5.86-3.75-.52-3.22.51-4.49,4.16-6.3,2.48-1.23,4.89-2.74,7.03-4.5,4.8-3.97,9.66-7.92,14.01-12.36,3.18-3.24,2.83-4.04-.21-8.59-2.41.17-5.04.6-7.63.44-1.9-.12-4.07-.6-5.55-1.69-3.03-2.22-2.71-6.24.8-7.12,5.98-1.5,9.56-5.59,13.46-9.72,2.74-2.91,6.3-5.03,9.26-7.76,2.13-1.97,3.86-4.36,5.77-6.57-.31-.4-.62-.81-.93-1.21-4.91,2.11-9.82,4.21-14.73,6.32-2.96,1.28-5.83,2.88-8.91,3.73-1.46.4-4.05-.12-4.77-1.17-.67-.97-.11-3.71.88-4.76,3.04-3.2,6.55-5.95,9.86-8.9,1.87-1.67,3.68-3.39,5.52-5.09-.2-.48-.4-.96-.6-1.43-1.84.13-3.69.22-5.53.39-2.15.19-4.52-.02-4.91-2.36-.23-1.35.96-3.44,2.14-4.43,3.87-3.25,8.16-6,12.07-9.21,7.13-5.84,17.52-14.46,20.78-22.15-4-.29-7.88-.5-11.75-.87-4.22-.41-6-3.93-3.33-7.19,2.15-2.62,4.92-4.79,7.64-6.86,2.99-2.28,5.19-4.88,6.48-8.52.85-2.38,2.68-4.46,4.25-6.53,1.65-2.18,3.52-4.19,6.01-7.13-2.9-.04-4.46.08-5.98-.11-4.04-.48-5.74-3.13-3.99-6.82,1.28-2.7,3.24-5.1,5.05-7.51,1.43-1.91,3.08-3.65,5.12-6.04-1.82-.37-2.95-.41-3.91-.82-2.93-1.24-3.67-4-1.39-6.25,1.99-1.97,4.43-3.51,6.76-5.11,4.38-3.03,7.82-6.21,9.16-12.09,1.5-6.56,3.23-13.26,6.77-19.36,1.69-2.9,1.42-6.99,1.8-10.57.45-4.21.4-8.48,1.03-12.65.34-2.23,1.66-4.31,2.54-6.47,3.63.71,4.39,3.25,5,5.43,1.36,4.84,2.26,9.82,3.44,14.72.65,2.72.8,5.91,2.35,8.01,5.01,6.76,7.94,14.45,11.33,22,1.05,2.34,3.75,4.14,6.03,5.69,2.49,1.69,5.55,2.54,8.03,4.24,1.69,1.16,3.69,3.01,3.99,4.81.52,3.09-2.65,3.45-5.63,4.11,2.98,2.94,5.54,5.45,8.08,7.99,1,1,2.08,1.96,2.89,3.1,3.36,4.73,1.97,8.05-3.69,8.99-.95.16-1.92.14-2.86.21-.02.64-.2,1.17-.02,1.36,4.89,5.02,10.27,9.57,13.94,15.73.93,1.55,3.26,2.27,4.96,3.36,2.38,1.53,4.82,2.97,7.14,4.59,1.81,1.26,2.55,2.94,1.92,5.27-.58,2.16-2.02,2.77-3.95,3.12-3.72.67-7.43,1.48-11.96,2.39,2.13,2.19,3.93,4.26,5.95,6.09,8.76,7.96,19.09,13.54,29.33,19.26.71.39,1.47.68,2.18,1.07,1.96,1.06,3.53,2.79,2.47,4.85-.64,1.24-2.78,1.95-4.39,2.39-1.69.46-3.54.32-5.71.47,1.06,3.2,3.64,4.36,6.01,5.77,3.12,1.85,6.22,3.75,9.23,5.77,1.15.77,2.23,1.8,3,2.94,1.76,2.64.78,4.94-2.35,5.07-2.35.1-4.8-.42-7.1-1.06-6.38-1.78-12.7-3.76-19.95-5.93,1.01,3.86,2.82,6.06,5.66,7.21,5.92,2.41,10.59,6.49,15.44,10.47,2.19,1.8,5.36,2.59,8.21,3.36,2.44.66,4.84.85,4.87,4.2.03,2.9-1.75,5.07-5.18,5.64-2.19.36-4.5.13-6.64.62-1.35.31-2.78,1.24-3.7,2.3-1.51,1.73-.42,3.44.87,4.83,1.1,1.18,2.21,2.48,3.57,3.28,8.09,4.75,15.19,11.32,24.9,13.27.27,1.6.55,2.96.72,4.34.35,2.77-.99,4.14-3.69,4.46-3.99.47-7.98,1.01-12.19,1.54.64,5.93,4.8,8.31,9.26,10.38,2.56,1.19,5.25,2.09,7.76,3.39,3.23,1.67,3.06,3.39-.05,5.63-3.18,2.29-6.61,2.85-10.35,2.18-1.54-.28-3.07-.65-4.77-1.01.13.67.11,1.22.28,1.29,8.93,3.78,15.58,10.66,22.98,16.56,2.16,1.73,4.91,2.76,7.48,3.92,1.71.77,3.93,1.44,3.21,3.62-.55,1.67-2.15,3.57-3.75,4.22-5.28,2.16-10.88,1.92-15.91-.55-5.12-2.51-9.96-1.8-16.27-.7,2.23,1.46,3.38,2.52,4.74,3.04,5.78,2.22,9.14,6.62,10.96,12.23,1.07,3.28,2.88,5.66,5.74,7.51,3.71,2.4,7.12,5.32,10.99,7.41,2.4,1.3,5.46,1.31,8.1,2.25,1.33.47,3.12,1.52,3.38,2.63.3,1.24-.65,3.01-1.51,4.22-.64.89-1.97,1.38-3.08,1.82-3,1.18-5.97,2.63-9.1,3.19-2.22.39-4.82-.08-6.97-.9-5.02-1.92-10.03-2.94-16.84-1.61,8.07,5.73,15.78,9.85,23,14.69,7.27,4.87,15.03,8.72,23.56,10.48.96,6.47-.14,7.23-13.56,9.56.24,2.85,2.57,4.08,4.52,5.09,6.99,3.63,14.01,7.31,21.31,10.23,2.96,1.18,6.68.46,10.22.61,1.08,5.46-3.79,6.24-6.62,8.75-3.49,3.09-7.51,4.33-11.75,3.5-3.9-.76-7.57-2.7-11.28-4.09-1.05,1.74-1.65,3.97-3.08,4.78-1.57.89-3.94.85-5.86.54-2.35-.38-4.62-1.41-6.88-2.27-2.03-.77-4.01-1.69-7.29-3.09.97,2.18,1.25,3.22,1.83,4.03,7.51,10.46,17.88,16.15,30.45,18.11,2.17.34,4.35.64,6.66.98.39,1.18.9,2.09.96,3.04.15,2.59,1.68,3.66,3.97,3.6,5.82-.15,11.63-.49,17.44-.69,2.25-.08,4.5.03,8.06.06-8.87,14.77-23.15,16.38-37,19.96,1.77,2.06,3.28,3.59,4.53,5.32,2.58,3.57,1.75,5.66-2.55,6.01-3,.25-6.05.05-9.06-.13-8.02-.48-16.04-1.05-24.09-1.58-.25,1.5.01,4.37-.98,4.91-2.37,1.29-5.34,1.98-8.07,1.99-5.23.03-10.46-.59-15.69-.91-.78-.05-1.56.09-2.28.14-.12.64-.31,1.04-.24,1.38,1.45,6.33.94,7.17-5.24,7.69-6.05.51-12.11.85-18.65,1.3-.31,1.11-.71,2.56-1.19,4.29-8.77,1.69-17.22-.67-26.22-2.22.28,4.1.54,7.86.8,11.61.26,3.81.52,7.61.83,12.03,2.77-.05,4.92,0,7.07-.15"/>
    <path class="cls-3" d="M89.11,413.48c2.58,8.88,8.61,15.12,15.71,20.72-1.34-.28-2.69-.56-4.51-.94.35,1.66.63,3,.94,4.47-3.14,1.18-5.33,0-7.39-1.95-2.72-2.56-5.51-5.05-8.8-7.31.32,1.09.66,2.17.96,3.27.82,3.05-.71,4.74-3.84,3.96-1.66-.42-3.3-1.22-4.74-2.17-2.21-1.45-4.24-3.17-6.97-5.25-.07,10.29-.13,19.97-.19,29.95.87.16,1.87.46,2.89.52,6.3.37,12.6.81,18.91.98,4.71.13,9.03,1.09,12.67,4.21-2.58.66-82.99-5.56-89.15-6.99,3.38-1.25,6.27-2.22,9.62-1.86,6.42.7,12.88,1.1,19.32,1.62,1.32.11,2.63.21,4.49.36,1.15-9.97,2.26-19.62,3.49-30.29-2.74,1.71-4.56,2.98-6.5,4.01-1.76.93-3.6,1.95-5.51,2.29-2.72.49-3.75-.83-3.14-3.51.37-1.61.9-3.19,1.55-5.4-3.94,2.76-7.19,5.07-10.49,7.3-.99.67-2.08,1.28-3.21,1.65-3.02.98-4.32-.26-3.64-3.34.06-.26.25-.49.29-.75.03-.24-.06-.51-.13-.93-.44-.1-.94-.21-1.44-.31-.47-.09-.93-.17-2.14-.39,9.17-4.12,15.11-10.68,19.62-18.88-.45.27-.93.52-1.35.83-.54.4-1.06.83-1.55,1.3-7.25,6.85-15.84,11.69-24.94,15.39-6.02,2.44-12.6,2.91-18.75-.4-1.89-1.02-3.69-1.4-5.75-.68-2.65.93-5.37.77-7.88-.31-.89-.39-1.65-1.67-1.89-2.68-.09-.39,1.37-1.3,2.25-1.71.69-.32,1.61-.46,2.36-.32,4.43.83,7.42-1.38,10.24-4.68-2.57-1.29-5.04-.38-7.42-.16-1.79.17-3.33-.02-5.03-.72-1.5-.61-3.38-.74-5-.49-5.62.88-9.77-2.17-13.98-4.99-.83-.56-1.18-1.84-1.95-3.1,1.1-.3,1.69-.67,2.05-.52,3.41,1.43,6.91.47,10.34.31,1.62-.07,3.44-.8,4.75-1.79,1.86-1.39,3.76-2.03,5.98-1.74,2.47.32,4.57-.35,6.91-1.31,4.68-1.91,9.23-4.37,14.45-4.79,2.99-.24,5.72-1.36,8.2-3.1,2.02-1.42,4.17-2.46,6.78-1.96.38.07.8-.03,1.19-.11,3.74-.76,5.98-3.6,8.78-5.68-.14-.3-.29-.61-.43-.91-1.33.42-2.66,1.21-3.99,1.21-6.72,0-13.26,1.57-19.93,1.94-1.31.07-2.93.05-3.93-.63-2.45-1.66-4.76-1.23-7.21-.34-.38.14-.8.29-1.18.23-4.56-.63-9.01.41-13.51.68-2.2.13-4.49-1.37-7.14-2.28,2.91-5.61,9.27-5.7,14.01-9.62-4.76-.16-8.89-.45-13.02-.4-4.54.05-8.28-2.04-12.04-4.08-3.69-2-8.08-2.64-12.23-5.94,6.3-1.4,11.3-3.68,17.19-2.12,4.1,1.09,8.53,1.02,12.83,1.27,8.4.47,16.61-.49,24.42-3.86.86-.37,1.73-.73,2.57-1.15.18-.09.24-.4.51-.87-6.23.56-12.28,1.75-18.65.14,3.11-1.64,6.13-3.49,9.35-4.86,3.13-1.33,6.46-2.16,9.7-3.21-.06-.34-.13-.69-.19-1.03-1.76.08-3.53.28-5.29.22-1.94-.07-4.2.3-4.64-2.64-.23-1.53-1.6-1.59-2.83-1.7-1.72-.15-3.39-.13-4.69-1.78-.51-.64-1.98-.55-3.02-.74-2.17-.39-4.21-.92-4.95-3.94,1.18-.54,2.31-1.15,3.5-1.59,3.54-1.29,7.1-2.49,10.65-3.75,2.8-.99,5.5-2.09,7.54-4.43.59-.67,1.5-1.26,2.36-1.45,2.85-.65,4.57-2.68,6.33-4.74,1.67-1.97,2.81-4,.71-7.06-2.25.09-5.02.19-7.79.33-3.21.17-6.41.51-9.62.53-1.36.01-2.71-.59-4.86-1.1,1.57-1.73,2.59-2.86,4.03-4.46-1.44-.37-2.62-.66-3.8-.98-1.8-.48-3.67-.81-5.36-1.54-1.25-.54-2.38-1.86-1.62-3.22.42-.76,2.04-1.31,3.05-1.2,3.84.4,7.53-.11,11.09-1.47,2.5-.95,4.95-2.09,7.29-3.4,1.24-.69,2.51-1.73,3.21-2.93,1.83-3.15,4.6-4.61,7.95-5.69,7.84-2.53,15.29-5.92,21.46-11.58,1.56-1.43,2.9-3.08,4.4-4.68-.52-.3-.82-.55-.88-.5-5.76,4.59-12.79,6.04-19.65,7.81-2.03.52-4.27.49-6.39.38-4.43-.23-8.86-.69-13.28-1.06-1.35-.11-2.6-.77-2.38-2.15.15-.94,1.17-2.15,2.08-2.48,4.64-1.68,9.45-2.89,14.02-4.7,3.14-1.25,6.48-2.42,8.28-5.9.66-1.27,2.37-2,3.45-3.5-.94.16-1.9.24-2.81.48-2.46.66-4.87,1.7-7.37,2.01-1.9.24-4.03-.07-5.83-.74-1.79-.68-1.83-2.48-.23-3.43,2.86-1.69,5.73-3.44,8.8-4.65,2.01-.8,3.28-1.91,3.63-3.87.85-4.77,3.97-6.69,8.32-8.13,5.06-1.69,8.45-5.64,10.43-10.82-6.85,3.81-13.75,6.8-22.3,4.41,4.85-3.31,10.34-5.07,14.03-9.71-3.54-1.13-7.5-1.14-9.08-5.19.6-.41.98-.88,1.25-.82,6.25,1.32,10.98-2.63,16.19-4.75,3.8-1.55,7.34-3.74,10.86-6.09-9.39,1.04-18.65,4.3-28.32.08,5.03-1.38,9.66-2.65,15.24-4.18-1.77-.72-2.68-1.02-3.52-1.44-2.08-1.03-2.37-2.37-.52-3.54,2.13-1.35,4.47-2.38,6.77-3.44,1.21-.56,2.56-.8,3.8-1.32,1.55-.65,2.59-1.64,2.82-3.55.46-3.92,2.39-6.43,6.59-7.47,3.22-.8,6.22-2.44,9.71-2.16.69.05,1.43-.51,2.11-.78-.1-2.39-1.47-3.25-3.4-3.46-1.87-.2-3.76-.28-5.63-.5-1.05-.12-2.18-.22-3.1-.69-.7-.35-1.57-1.27-1.54-1.91.02-.71.94-1.93,1.53-1.97,2.93-.22,4.51-1.56,5.53-4.37.77-2.12,4.61-3.41,6.96-2.94.65.13,1.26.48,1.92.6,1.92.38,3.17-.88,2.13-2.48-2.78-4.24-1.03-8.94-1.68-13.37-.61-4.14,2.19-5.44,6-3.45.81.42,1.61.87,2.19,1.18.92-2.09,1.83-3.99,2.59-5.94.38-.98.45-2.08.69-3.12.36-1.56.52-3.22,1.2-4.64.44-.93,1.57-2.03,2.49-2.13,1.62-.17,1.6,1.54,1.73,2.66.19,1.58.13,3.18.18,5.16.67-.37,1.06-.64,1.49-.82,1.19-.48,3.01-1.64,3.47-1.24.95.81,1.73,2.55,1.57,3.77-.36,2.75-1.04,5.55-2.16,8.08-.82,1.86-1.33,3.44-.44,5.41,1.13.25,2.29.5,3.53.78,1.2,4.61-1.84,8.55-1.93,13.46,1.49-.97,2.52-1.8,3.68-2.37,2.28-1.12,4.57-2.27,6.96-3.09,1.37-.47,3.32-.46,3.82,1.21.36,1.21-.12,2.88-.7,4.12-.47,1.01-1.64,1.7-2.58,2.62,1.36,3.26,5.08,3.83,7.15,6.27-.6,2.08-1.89,2.89-3.91,2.65-.8-.09-1.64-.04-2.41-.24-5.44-1.41-10.39-.02-15.11,2.61-3.08,1.71-6.09,3.54-9.13,5.31.13.28.27.56.4.84,1.73-.55,3.45-1.17,5.2-1.64,2.46-.66,4.93-1.3,7.43-1.79,7.47-1.47,12.79,1.72,16.64,7.89.85,1.36,1.55,2.84,2.15,4.33,1.95,4.85,3.67,9.82,7.4,13.22-.49,2.44-1.78,2.7-3.43,2.65-3.6-.1-6.82-1.28-9.87-3.1-.95-.57-2.04-.9-3.24-1.03,1.63,3.37,4.48,5.25,7.4,7.13,4.62,2.98,9.16,6.09,13.77,9.08.85.55,1.9.84,2.89,1.14.89.27,1.88.27,2.72.64.53.23,1.25.97,1.19,1.37-.1.65-.64,1.51-1.23,1.76-2.19.94-4.39,2.03-6.94,1.4-.72-.18-1.53-.02-2.98-.01,3.17,5.21,8.28,7.36,12.7,11.1-4.47,1.21-8.28.64-11.88-1.1-3.6-1.74-7.06-3.76-10.61-5.68-1.01,4.43-1.39,4.43,2.76,6.9,3.67,2.19,7.54,4.15,11.54,5.62,3.12,1.15,4.6,2.96,4.85,6.11.27,3.38,1.06,6.44,4.99,7.36.13.03.26.1.36.18,2.32,2.13,4.64,4.26,7.09,6.51-.48,1.94-2.29,1.94-3.78,1.95-3.79.01-7.52-.41-10.75-2.76-.75-.55-1.71-.8-3.11-1.42,2.58,6.53,7.48,9.48,12.82,11.6,4.03,1.61,6.57,4.99,10,7.27.32.21.28.97.55,2.01-2.21.32-4.27.96-6.29.84-3.45-.2-6.87-.89-10.31-1.36-.92-.12-1.9-.41-2.77-.22-3.27.71-5.71-.67-8.03-2.73-2.51-2.22-5.19-4.26-7.7-6.48-1.19-1.05-2.18-2.34-3.26-3.52-1.53-1.67-3.07-3.33-5.18-4.68.19.68.25,1.42.58,2.02,2.89,5.19,6.3,10.04,10.55,14.19,1.79,1.75,3.99,3.18,6.21,4.39,3.56,1.95,6.99,3.97,9.6,7.21.7.86,1.84,1.66,2.9,1.87,2.12.42,2.57,1.61,2.35,3.47-.14,1.17-.2,2.36-.27,3.21,1.87,1.17,3.42,2.38,5.16,3.16,2.04.91,4.2,1.7,6.39,2.1,3.81.71,5.17,1.69,6.21,5.51-1.6.43-3.2.86-5.4,1.45.85.88,1.31,1.74,2,1.99,1.49.56,3.13.71,4.65,1.21,1.29.42,2.5,1.1,3.94,1.75-1.75,2.83-4.14,2.61-6.34,2.89-5.43.69-10.66-.81-15.97-1.4-2.88-.32-5.76-.83-9.34-.41,2.14,4.2,2.69,8.82,8.18,9.45.58.07,1.21.6,1.63,1.09,3.71,4.28,8.58,6.81,13.54,9.28,2.39,1.19,4.64,2.69,6.87,4.17.59.39.87,1.26,1.26,1.87-1.15,2.18-2.93,1.91-4.67,1.81-1.57-.1-3.16-.59-4.11,1.51-.24.54-1.92.67-2.9.58-2.8-.28-5.31-.29-5.67,3.51-2.65-.22-5.02-.41-8.21-.67,6.86,3.96,13,7.51,19.15,11.05-8.07.87-15.26-2.1-22.86-3.47.71.5,1.38,1.06,2.13,1.49,2.09,1.21,4.27,2.28,6.32,3.56,4.9,3.04,10.12,4.65,15.96,4.87,7.79.3,15.55,1.13,23.32,1.84,1.86.17,3.71.62,5.5,1.17,1.19.37,2.25,1.14,4.15,2.15-5.99,3.79-12.02,4.35-17.72,5.89-5.96,1.62-11.94,1.34-18.25.94,3.56,2.81,7.13,5.63,10.73,8.47-1.28,2.54-3.16,2.66-5.02,2.7-6,.13-11.68-1.62-17.35-3.2-2.02-.56-3.86-.94-5.89-.43-4.24,1.08-8.24.6-11.94-1.92-.87-.59-1.94-1.03-2.97-1.21-5.57-.96-10.84-2.81-15.94-5.39,2.01,3.77,4.88,6.63,8.14,9.11.5.38,1.22.7,1.83.7,4.28-.02,7.67,2.27,11.15,4.26,3.37,1.93,6.58,4.04,10.45,5.08,2.09.56,3.9,2.27,5.74,3.59,2.61,1.88,4.95,4.04,8.71,2.95,2.08-.61,3.66,1.01,5.24,2.39,3.56,3.11,7.61,5.19,12.56,4.83,1.18-.08,2.36,0,3.64,0,.46,1.93-.47,2.85-1.79,3.28-5.28,1.69-10.34,4.91-16.27,2.63-.12-.05-.27-.06-.4-.04-4.69.63-9.29,0-14.01-1.15,1.23,3.23,3.18,5.47,6.58,6.12,1.32.25,2.72.14,3.98.53.75.24,1.82,1.15,1.81,1.73-.03.88-.74,2.33-1.41,2.49-1.9.46-4.15,1.01-5.85.38-3.45-1.27-6.68-1.17-10.18-.46-6.96,1.4-13.47-.27-19.08-4.41-7.45-5.49-15.19-10.7-21.39-17.83Z"/>
    <g>
      <g>
        <path class="cls-3" d="M386.98,433.67c1-.16,1.49-.24,1.98-.32-.2-.75-.4-1.48-.71-2.62,1.09.51,1.77.82,2.46,1.14.25-.49.5-.98.89-1.74,1.26,1.41,2.37,2.65,3.46,3.88.85-.6.79-2.11,2.51-1.79l-.61,5.51c2.72,1.77,5.27,3.32,7.72,5.03,3.64,2.54,7.2,5.18,10.8,7.78.55-.17,1.1-.34,1.65-.51-2.67-2.87-4.14-6.22-4.1-10.18,0-1.02.07-2.05.11-3.07-.51-.06-1.02-.12-1.53-.19-3.9-.51-5.67-2.51-6.04-6.37-.21-2.2.2-4.25.84-6.28.89-2.81,2.09-3.62,5.07-3.58-.08-.59-.22-1.18-.24-1.77-.06-1.97-.25-4.04,1.02-5.69,1.02-1.32,1.27-2.75,1.4-4.28.07-.85.14-1.71.31-2.55.57-2.79,2.01-4.86,4.83-5.78.47-.15.92-.35,1.08-.42-.04-2.78-.22-5.32-.06-7.83.14-2.15,1.56-3.69,3.58-4.22,1.52-.39,3.22-.44,4.78-.2,3.93.6,7.11,2.77,10.06,5.31.49.42,1.01.79,1.64,1.27.26-.79.43-1.36.63-1.91,1.85-4.89,6.1-6.35,10.47-3.41,1.75,1.17,3.39,2.63,4.74,4.25,1.79,2.13,3.26,4.55,5.23,7.37.29-.44.49-.99.87-1.29,3.95-3.1,7.54-2,9.07,2.75.23.73.48,1.48.53,2.23.17,2.29.41,4.6.34,6.89-.09,2.97-.44,5.94-.68,8.84,3.62,1.98,3.95,2.7,3.16,6.62-.05.25-.08.51-.12.76,1.63.57,2.46,1.84,2.73,3.44.5,2.92.27,5.8-.88,8.55-1.14,2.71-3.39,3.99-6.36,3.71-.76-.07-1.52-.25-2.28-.38-.23.72-.55,1.43-.67,2.17-.73,4.47-2.84,7.96-6.94,10.11.28.26.57.51.85.77,7-2.89,14.01-5.79,21.08-8.71.72-1.65-.07-3.8,1.54-5.67.47,1.03.83,1.82,1.2,2.62,1.82-.45,2.47-2.7,4.51-2.78.14.63.25,1.15.35,1.61.82-.15,1.5-.27,2.55-.45-.48,1.04-.78,1.67-1,2.15.52.39.94.7,1.52,1.14-.96.57-1.68.99-2.46,1.45.39.53.74,1.01,1.27,1.72-.74.06-1.17.01-1.54.14-1.92.63-4.11.91-5.68,2.05-4.14,3-7.95,6.45-11.98,9.6-2.34,1.83-4.87,3.43-7.31,5.13,0,.43-.07.86-.01,1.28.28,2.1-.66,3.41-2.59,4.11-.4.15-.78.34-1.18.49-3.47,1.36-6.94,2.71-10.51,4.11.56,1.97,1.15,3.91,1.67,5.87,1.3,4.88,2.02,9.83,1.7,14.9-.07,1.09,0,2.3-1.47,2.63-1.06.2-2.12.37-3.18.51,1.06-.14,2.12-.31,3.18-.51.41,2.08.86,4.15,1.2,6.24.5,3.09.82,6.22,1.42,9.29.31,1.58-.27,2.41-1.52,3.07-3.68.8-7.36,1.59-11.03,2.39-1.3.01-1.96-.78-2.48-1.86-1.29-2.68-2.63-5.33-3.93-8.01-1.28-2.64-5.51-3.07-7.34-.75-1.84,2.33-3.73,4.64-5.57,6.97-.67.85-1.42,1.47-2.6,1.21-3.31-1.44-6.62-2.89-9.93-4.33-1.64-1-2.02-2.25-1.21-4.09,2.05-4.67,3.95-9.41,5.9-14.13-.5-.42-1-.84-1.33-1.11.96-7.83,4.1-14.59,8-21.15-.64-.44-1.11-.78-1.59-1.09-3.13-2.06-6.31-4.04-9.37-6.2-2.42-1.7-2.52-2.29-1.69-5.21.07-.25.18-.48.27-.72-4.78-5.79-9.54-11.6-14.37-17.36-.91-1.09-2.03-2.06-3.2-2.86-1.33-.91-2.83-1.57-4.37-2.41.65-.41,1.17-.73,1.69-1.06-.75-.75-1.37-1.36-2.24-2.23ZM415.77,426.9s0,0,0,0c1.53-.78,2.16-2.24,2.84-3.64-.68,1.4-1.31,2.86-2.84,3.64Z"/>
        <path class="cls-3" d="M417.42,522c-.89,1.27-1.77,2.54-2.66,3.81-1.76,2.62-3.53,5.24-5.29,7.85-.36,1.71-.74,3.47-2.99,3.49-2.38.02-4.78-.06-6.96-1.19-.54-.28-.95-.81-1.55-1.33,1.82-2.21,4.19-2.6,6.47-3.19.99-3.02,1.97-6.04,2.96-9.07.77-2.32,1.54-4.65,2.31-6.97.26-.71.52-1.43.78-2.14,3.31,1.44,6.62,2.89,9.93,4.33-1,1.46-1.99,2.93-2.99,4.39Z"/>
        <path class="cls-3" d="M453.58,520.27c.24,2.44.49,4.87.73,7.31.22,3.11.43,6.22.65,9.34,2.15,1.16,4.46,2.11,5.93,4.74-1.02.41-1.82.95-2.65,1.02-1.43.12-2.9.03-4.33-.12-3.49-.37-4-.97-4.06-4.52-1.14-2.87-2.28-5.74-3.41-8.61-.57-1.31-1.15-2.63-1.72-3.94-.79-1.81-1.58-3.62-2.37-5.43,3.68-.8,7.36-1.59,11.03-2.39.07.87.14,1.73.21,2.6Z"/>
      </g>
      <g class="cls-6">
        <rect class="cls-1" x="410.98" y="435" width="2" height="78"/>
        <rect class="cls-4" x="404.98" y="435" width="10" height="78"/>
        <rect class="cls-1" x="414.98" y="435" width="2" height="78"/>
        <rect class="cls-4" x="416.98" y="435" width="2" height="78"/>
        <rect class="cls-1" x="418.98" y="435" width="2" height="78"/>
        <rect class="cls-4" x="420.98" y="435" width="2" height="78"/>
        <rect class="cls-1" x="422.98" y="435" width="2" height="78"/>
        <rect class="cls-4" x="424.98" y="435" width="2" height="78"/>
        <rect class="cls-1" x="426.98" y="435" width="2" height="78"/>
        <rect class="cls-4" x="428.98" y="435" width="2" height="78"/>
        <rect class="cls-1" x="430.98" y="435" width="2" height="78"/>
        <rect class="cls-4" x="432.98" y="435" width="2" height="78"/>
        <rect class="cls-1" x="434.98" y="435" width="2" height="78"/>
        <rect class="cls-4" x="436.98" y="435" width="2" height="78"/>
        <rect class="cls-1" x="438.98" y="435" width="2" height="78"/>
        <rect class="cls-4" x="440.98" y="435" width="2" height="78"/>
        <rect class="cls-1" x="442.98" y="435" width="2" height="78"/>
        <rect class="cls-4" x="444.98" y="435" width="2" height="78"/>
        <rect class="cls-1" x="446.98" y="435" width="2" height="78"/>
        <rect class="cls-4" x="448.98" y="435" width="2" height="78"/>
        <rect class="cls-1" x="450.98" y="435" width="2" height="78"/>
        <rect class="cls-4" x="452.98" y="435" width="2" height="78"/>
        <rect class="cls-1" x="454.98" y="435" width="2" height="78"/>
        <rect class="cls-4" x="456.98" y="435" width="2" height="78"/>
        <rect class="cls-1" x="458.98" y="435" width="2" height="78"/>
        <rect class="cls-4" x="460.98" y="435" width="2" height="78"/>
        <rect class="cls-1" x="462.98" y="435" width="2" height="78"/>
        <rect class="cls-4" x="464.98" y="435" width="2" height="78"/>
        <rect class="cls-1" x="466.98" y="435" width="2" height="78"/>
        <rect class="cls-4" x="468.98" y="435" width="2" height="78"/>
        <rect class="cls-1" x="470.98" y="435" width="2" height="78"/>
        <rect class="cls-4" x="472.98" y="435" width="2" height="78"/>
      </g>
    </g>
  </g>
</svg>