<?xml version="1.0" encoding="UTF-8"?>
<svg id="Hintergrund" xmlns="http://www.w3.org/2000/svg" xmlns:xlink="http://www.w3.org/1999/xlink" viewBox="0 0 1366 784">
  <defs>
    <style>
      .cls-1 {
        fill: #de911a;
      }

      .cls-1, .cls-2 {
        stroke-width: 0px;
      }

      .cls-2 {
        fill: none;
      }

      .cls-3 {
        clip-path: url(#clippath-1);
      }
    </style>
    <clipPath id="clippath-1">
      <rect class="cls-2" x="0" width="1366" height="784"/>
    </clipPath>
  </defs>
  <g class="cls-3">
    <path class="cls-1" d="M-1,271.78s44.03,18.54,114.08-19.54c0,0,33.02-10.02,53.04-5.01,20.01,5.01,17.01,7.02,29.02,7.02s64.05-14.03,71.05-21.05,25.02,4.01,37.03,4.01,5.91-9.68,23.97-6.34c18.06,3.34,27.52,6.29,50.81-.7,23.29-6.99,31.76,0,31.76,0,0,0,31.57,8.05,72.6,4.04,0,0,4-11.02,25.02,0,0,0,24.51-7.27,34.77-7.14,10.26.13,30.56,6.88,36.92,0,0,0,4.36,2.13,12.37,2.13s18.67-1.26,26.35-2.13l7.68-.87s24.02,3.01,50.04-13.03c0,0,19.01-2,52.04,21.05,0,0,16.01,6.01,32.02-5.01,0,0,124.09,76.17,157.12,76.17s105.08-41.09,116.08-42.09,4-8.02,34.02-1c0,0,23.02-16.03,37.03-13.03,14.01,3.01,62.05,12.03,69.05,17.04s41.03-4.01,41.03-4.01c0,0,29.02,3.01,47.03,18.04,18.01,15.03,54.04,19.04,72.05,18.04,18.01-1,33.02,2,33.02,2l-.02,483.65H-.02l-.98-512.22Z"/>
  </g>
</svg>