<?xml version="1.0" encoding="UTF-8"?>
<svg id="Hintergrund" xmlns="http://www.w3.org/2000/svg" xmlns:xlink="http://www.w3.org/1999/xlink" viewBox="0 0 1366 784">
  <defs>
    <style>
      .cls-1 {
        fill: #97fdff;
      }

      .cls-1, .cls-2, .cls-3 {
        stroke-width: 0px;
      }

      .cls-2 {
        fill: none;
      }

      .cls-4 {
        clip-path: url(#clippath-3);
      }

      .cls-3 {
        fill: #9d5417;
      }
    </style>
    <clipPath id="clippath-3">
      <rect class="cls-2" x="0" width="1366" height="784"/>
    </clipPath>
  </defs>
  <g class="cls-4">
    <path class="cls-3" d="M-3,363.29s21.05-7.21,102.23,0c0,0,23.05-4.81,25.05-2.81s10.68.03,11.35-.49,7.69-1.52,12.7,1.49,17.28,1.81,17.28,1.81c0,0,29.83-4.81,42.86-.8,0,0,35.08-3.01,44.1,3.01,9.02,6.01,29.72-3.04,29.72-3.04,0,0,21.39-.97,30.41,4.04,9.02,5.01,23.36-.89,29.72,1.06,6.36,1.95,26.13,3.09,34.28,1.01,8.15-2.07,25.19-5.08,36.21,2.94,11.02,8.02,38.08,6.01,38.08,6.01,0,0,22.05,6.01,27.06,13.03,5.01,7.02,20.04-3.01,20.04-3.01,0,0,19.04-4.01,27.06-1s18.04-2,19.04-2,8.02-3.01,24.05,3.01c16.04,6.01,31.07-5.01,31.07-5.01,0,0,62.14-12.03,73.16-8.02,11.02,4.01,19.04,6.01,26.06,4.01s16.04-7.02,29.06-5.01c13.03,2,13.03,6.01,21.05,5.01s7.02-3.01,17.04-3.01,16.72-.58,24.4.71,10.68,1.29,24.71,2.3c14.03,1,20.04,0,30.07,4.01,10.02,4.01,15.03,3.01,25.05,4.01,10.02,1,18.04,0,21.05-2s5.01-2,12.03,1c7.02,3.01,9.02,6.01,14.03,5.01s6.01-2,14.03-4.01,17.04-4.01,23.05-2c6.01,2,8.02,5.01,15.03,2s9.02-2,14.03-4.01c5.01-2,3.01-4.01,11.02-4.01s16.04,0,21.05,1,15.03,6.01,20.04,4.01c5.01-2,20.04-4.01,43.09-2s46.1,6.01,58.13,1c12.03-5.01,43.09,2,52.11,1,9.02-1,6.01-1,23.05-4.01,17.04-3.01,12.03,0,29.06-1s15.03,0,21.05,5.01c6.01,5.01,12.03,11.02,19.04,8.02s16.04-4.01,25.05-5.01c9.02-1,7.02-3.01,20.04,1s15.03,6.01,24.05,2c9.02-4.01,6.01-4.01,13.03-6.01,0,0,3.01-.13,3.01-.57s-.02,401.04-.02,401.04H-.02s-2.98-425.03-2.98-420.71Z"/>
  </g>
  <path class="cls-3" d="M1087.82,371.75c.32.15.57.26.83.38.95.43,1.95.68,2.99.74.78.04,1.45-.21,2.09-.75-.37,0-.67.01-.98.02,0-.02-.01-.04-.02-.06.26-.15.52-.3.79-.45-.01-.03-.02-.05-.03-.08-.61.1-1.21.24-1.89.13.12-.08.19-.13.3-.21-.58-.11-1.15-.07-1.7-.43.79-.02,1.44-.21,2.04-.69-1.63-.05-3.08-.49-4.4-1.52.62,0,1.15-.03,1.74-.23-.6-.31-1.18-.55-1.58-1.14.22.08.37.13.52.18.12-.3-.05-.54-.22-.87.27.09.47.13.64.22.48.24.98.31,1.5.28.43-.03.86-.02,1.3-.05-.42-.21-.9-.3-1.29-.71.13,0,.19,0,.25,0,1.51.3,3.02.35,4.54.1.29-.05.5-.14.59-.44.05-.14.15-.27.25-.38.22-.26.23-.25.05-.61-.04,0-.1,0-.11.02-.25.36-.67.35-1.02.47-.25.08-.35-.1-.48-.26-.41.25-.82.03-1.22-.03-.36-.06-.7-.2-1.05-.3-.4-.12-.8-.23-1.23-.35.52-.55,1.21-.52,1.92-.58-.15-.05-.29-.13-.44-.15-.29-.03-.51-.16-.76-.3-.45-.24-.84-.62-1.39-.66-.02,0-.03-.04-.09-.11.28-.02.53-.04.82-.06-.04-.61-.62-.58-.96-.85.5-.17.96,0,1.41.11.57.14,1.12.36,1.72.36.4,0,.76-.1,1.12-.4-.38-.15-.79-.07-1.14-.41.55.04,1.03.04,1.49-.1.43-.12.88-.22,1.27-.43.42-.23.82-.54,1.15-.89.3-.33.31-.46.06-.77-.05-.06-.08-.14-.13-.24-.13.06-.25.12-.38.16-.14.04-.3.08-.45.08-.37,0-.73-.03-1.04.28-.17.17-.42.11-.69.05l.06-.74c-.38.08-.69.27-1.05.07.19-.34.62-.4.88-.74-.57.03-1.11.13-1.61-.27.82,0,1.45-.37,2.05-.78.39-.26.79-.46,1.26-.54.5-.09.95-.3,1.46-.6-.71-.2-1.36-.37-1.74-1.1l1.64.13c.09-.37.57-.52.42-.99-.12-.03-.25-.07-.44-.12.29-.2.57-.23.85-.22.26,0,.5-.02.7-.17-.07-.3-.14-.58-.19-.86-.03-.2-.01-.39.23-.48.07-.03.12-.11.17-.17.1-.16.24-.2.43-.17.44.06.79-.34.62-.76-.12-.31-.04-.48.13-.71.14-.18.19-.42.29-.64.42-.06.44-.04.51.32.03.16.07.33.16.46.14.2.16.37.02.57-.15.21-.12.42,0,.63.1.18.23.31.47.27.21-.04.35.05.44.24.02.05.04.12.08.14.36.19.24.49.16.77-.06.21-.15.41-.25.67.5.14,1,.28,1.49.42,0,.03,0,.06-.01.09-.13.02-.26.05-.42.08-.08.21,0,.38.09.6.17.46.5.47.86.49.3.01.61.02.96.03-.43.66-1.08.76-1.8.84.07.08.11.15.16.18.44.23.89.46,1.34.69.25.13.5.25.73.4.24.16.46.36.69.55.44.36.91.65,1.51.67-.5.37-1.04.21-1.62.13.13.12.25.25.38.37.14.13.29.25.47.4-.44.27-.72-.07-1.07-.14l-.05.68c-.28.17-.56.08-.7-.11-.2-.28-.51-.35-.76-.37-.38-.03-.7-.14-1.01-.37-.07.08-.12.15-.17.21-.28.36-.28.51,0,.88.65.88,1.55,1.39,2.59,1.66.31.08.63.12.97.18-.14.17-.33.16-.51.18-.18.02-.36.03-.59.05.27.32.57.5.93.51.44.02.89,0,1.33-.03.4-.03.8-.11,1.21-.14.25-.02.51.03.77.09-.37.26-.96.15-1.1.76.3.06.56.11.82.16,0,.02,0,.04,0,.06-.08.02-.15.04-.23.06-.18.04-.36.06-.53.13-.33.14-.65.32-.98.45-.19.07-.41.06-.61.1-.14.02-.28.05-.42.13.55.09,1.09.14,1.55.49.11.08.2.18.28.31-.56-.07-1.04.15-1.56.24-.48.08-.97.12-1.46.15-.17,0-.35-.08-.56-.13-.2.3-.46.13-.77.06-.35-.07-.49-.33-.71-.52-.33.24-.34.32-.15.6.1.15.22.3.26.47.06.28.25.4.49.45.67.15,1.33.32,2.01.41.89.12,1.78.16,2.68.06.03,0,.05.01.11.03-.39.31-.84.38-1.3.49.22.14,1.09.35,1.66.32.55-.03,1.09-.15,1.67-.24-.09.27-.39.45-.25.79.14-.03.3-.06.46-.1-.22.35-.26.38-1.6.92.5.3,1.03.36,1.56.47-1.35.82-2.81,1.13-4.39.96.47.57,1.08.8,1.82.91-.52.36-1.09.12-1.62.28.08.07.15.13.26.23-.7-.04-1.3-.19-1.94-.41.14.33.45.4.7.63-.37.04-.68-.04-1-.1.5.51,1.02.91,1.78.98,1.25.13,2.45-.04,3.63-.43.11-.04.21-.07.32-.1.02,0,.05.01.11.03-.48.56-1.1.88-1.77,1.14,1.59.34,3.15.08,4.78-.29-.45.49-.94.77-1.52,1.12.37.14.65.25.94.35,0,.02,0,.04,0,.06-.18.01-.36.02-.59.04.18.33.34.63.54,1.01-1.07-.15-2.03-.42-2.95-.83-.02.02-.04.05-.05.07.1.12.19.25.31.36.66.65,1.43,1.12,2.27,1.49.24.11.49.21.81.35-.73.27-1.4.14-2.12.1.21.32.57.36.81.63-.37.02-.67-.1-.98-.18-.95-.27-1.81-.74-2.64-1.27-.49-.32-1-.62-1.5-.92-.14-.08-.3-.12-.48-.19.17.73,1.11,1.63,2.29,2.22-.03.11-.06.22-.1.37.19.11.38.22.63.36-1.13.06-1.99-.57-3-.9.5.78,1.19,1.25,1.88,1.82-.41.05-.78.09-1.21.14.1.07.16.12.23.15.56.18,1.11.38,1.68.53.24.06.5.03.75.04.44.02.88.03,1.37.04-.09.25-.24.3-.41.32-.14.02-.28,0-.41.05-.13.04-.3.09-.36.19-.2.36-.53.43-.88.5-.15.03-.3.04-.47.11.25.07.5.15.8.24-.49.28-.94.19-1.4.1-1.03-.21-2.03-.51-2.96-1.02-.03-.02-.08,0-.17-.02.26.38.62.56.98.72.43.2.88.37,1.31.56.14.06.26.15.43.25-1.51.09-2.84-.34-4.13-.94l-.04.08c.06.07.11.13.17.2.05.06.12.11.14.22-.54-.24-1.08-.48-1.63-.72-.01.02-.03.03-.04.05.21.29.43.57.64.86,0,.01-.01.02-.02.03-.39-.24-.76-.49-1.16-.71-.4-.21-.83-.38-1.27-.58-.05.67-.1,1.27-.15,1.92.26.04.49.08.72.11,1.41.14,2.81.28,4.22.43.22.02.47.02.64.3-.15.02-.25.04-.36.04-.56-.01-1.12-.02-1.67-.05-1.31-.07-2.63-.14-3.94-.23-2.58-.17-5.17-.35-7.75-.54-.23-.02-.46-.06-.73-.1.17-.25.37-.23.55-.22.6,0,1.2.02,1.8.03,1.07.02,2.15.05,3.24.07.14-.3.1-.63.13-.94.02-.3,0-.61,0-.96-.97.14-1.8.54-2.66.93.27-.26.53-.52.8-.79-.01-.02-.03-.04-.04-.07-.55.17-1.11.33-1.66.5,0-.02-.02-.04-.03-.06l.37-.29s-.02-.04-.02-.06c-.1.02-.2.03-.29.05-.74.2-1.49.41-2.26.43-.51.01-1.03-.02-1.57-.1.1-.06.19-.13.29-.16.39-.12.78-.23,1.17-.33.42-.11.82-.27,1.18-.52.06-.04.11-.11.21-.21-.6.17-1.13.33-1.67.46-.75.17-1.51.28-2.29.22-.23-.02-.45-.11-.76-.18.3-.2.55-.12.86-.2-.12-.06-.19-.11-.27-.13-.41-.11-.81-.22-1.01-.67-.08-.18-.27-.22-.46-.24-.37-.05-.43-.1-.61-.39.11-.01.2-.04.29-.03.35.03.7.05,1.04.1.92.13,1.8-.08,2.68-.39-.36-.09-.72-.19-1.1-.29.67-.47,1.43-.81,1.99-1.46-.17-.12-.29-.02-.42,0-.64.15-1.27.32-1.91.45-.18.04-.38,0-.59-.07.19-.09.39-.18.59-.27-.02-.13-.03-.24-.05-.38,1.11-.27,1.89-.98,2.58-1.81-.01-.03-.03-.06-.04-.09-.19.06-.39.09-.58.17-.63.27-1.25.56-1.87.85-1.05.49-2.14.81-3.31.86-.02,0-.04-.02-.11-.05.3-.15.58-.29.94-.47-.75-.17-1.45-.04-2.14-.39.16-.05.26-.1.37-.13.99-.27,1.95-.61,2.78-1.23.16-.12.3-.26.42-.44-.98.23-1.95.38-3.01.41.22-.32.41-.6.62-.91-.22-.05-.4-.1-.58-.14,0-.02,0-.04,0-.07.31-.06.61-.13.97-.2-.48-.44-.91-.83-1.34-1.22.02-.03.03-.05.05-.08,1.52.55,3.05,1.02,4.69.87-.66-.34-1.24-.74-1.7-1.44Z"/>
</svg>