<svg width="1440" height="294" viewBox="0 0 1440 294" fill="none" xmlns="http://www.w3.org/2000/svg">
    <path d="M-51.836 0h-16.541L-118 162.281l100.34 149.381c64.68 3.394 184.627 24.67 197.35 28.743 12.724 4.073 168.819-8.903 223.107-10.6l740.674 15.369 79.16 18.06c55.14 1.91 214.508-44.476 223.668-49.058 9.16-4.582 18.761-48.798 68.801-58.981l-20.818-177.546c-33.72-16.97-43.562-13.627-72.062-22.282s-57.68 15.91-68.71 29.274c-20.57 10.394-67.95 31.438-92.88 32.456-31.18 1.273-69.98 15.274-83.98 28.002s-64.89 24.183-84.61 24.183c-19.73 0-67.44 28.001-77.62 28.001-10.18 0-146.324-8.273-153.322-19.728-5.598-9.164-116.847-33.941-171.771-45.184l-73.162 12.728c-12.936.424-42.752-1.528-58.53-12.728-15.778-11.201-32.87-4.667-39.444 0-17.813-10.395-56.366-31.184-68.072-31.184-11.706 0-43.897-11.03-58.53-16.546-17.813 0-56.875-1.655-70.617-8.273-17.177-8.273-22.267 0-34.991 0-12.723 0-32.445-10.183-40.716-10.183-6.616 0-32.021 12.304-43.897 18.456-14.42 6.152-44.788 18.074-50.895 16.546-7.635-1.909-23.539-8.273-26.72-16.546-2.545-6.619-15.905-15.062-22.267-18.456-8.483-5.09-28.247-19.219-39.444-35.002C50.845 15.401 37.02 16.971 31.505 19.728c-4.877-2.333-16.796-7.255-25.448-8.273C-4.758 10.182-37.84 0-51.836 0Z" fill="#ffaf1b"/>
</svg>
