<svg width="1440" height="202" viewBox="0 0 1440 202" fill="none" xmlns="http://www.w3.org/2000/svg">
    <path d="M1377.03 165.502c10.87.411 44.55 6.22 58.51 5.56 10-.473 18.49-6.878 21.54-16.254 20.41-51.763 86.229-127.988-5.946-164.08C1001.92-185.168-20-41.454-20-41.454-87.962 55.14-260.597 155.093-37.756 197.39c14.066 2.386 26.545 2.209 38.1-2.96 20.045-8.968 37.596-23.025 58.317-30.463 20.442-7.337 44.11-14.572 59.582-15.764 31.025-2.39 68.84-14.351 81.98-24.22 13.139-9.87 63.182-20.558 82.862-21.488 19.68-.93 65.473-23.44 75.63-23.92 10.158-.48 146.553-.912 154.281 7.047 5.36 5.52 90.749 15.791 149.559 22.039 16.456 1.748 32.956 1.125 49.066-1.7l47.9-8.4c12.881-.918 42.761-.911 59.234 6.45 23.989 10.72 53.528 3.704 78.648 11.052 13.049 3.818 25.079 6.708 30.668 6.443 7.017-.331 21.67 1.869 35.496 4.395a260.21 260.21 0 0 0 48.223 4.208c17.64-.1 37.53.562 46.77 3.269 17.68 5.176 22.22-1.05 34.91-1.65 12.7-.6 33.04 5.838 41.3 5.448 6.6-.311 31.15-10.412 42.6-15.423 13.99-5.132 43.52-15.19 49.71-14.372 7.75 1.021 24.03 4.876 27.74 10.713 2.97 4.669 16.85 10.148 23.42 12.304 8.8 3.284 29.44 12.576 41.64 23.468a35.243 35.243 0 0 0 5.87 4.269c14.94 8.637 34.3 6.725 51.28 7.367z" fill="#ffaf1b"/>
</svg>
